<?xml version="1.0" encoding="UTF-8"?>
<svg xmlns="http://www.w3.org/2000/svg" xmlns:xlink="http://www.w3.org/1999/xlink" width="113.78" height="79.77" viewBox="0 0 113.78 79.77">
<defs>
<g>
<g id="glyph-0-0">
<path d="M 7.546875 -6.90625 C 7.546875 -6.9375 7.53125 -7 7.4375 -7 C 7.40625 -7 7.40625 -7 7.296875 -6.890625 L 6.59375 -6.125 C 6.515625 -6.265625 6.046875 -7 4.953125 -7 C 2.734375 -7 0.5 -4.8125 0.5 -2.5 C 0.5 -0.921875 1.59375 0.21875 3.203125 0.21875 C 3.640625 0.21875 4.09375 0.125 4.453125 -0.015625 C 4.953125 -0.21875 5.140625 -0.421875 5.3125 -0.625 C 5.40625 -0.375 5.671875 -0.015625 5.765625 -0.015625 C 5.8125 -0.015625 5.828125 -0.046875 5.828125 -0.046875 C 5.859375 -0.0625 5.953125 -0.453125 6 -0.65625 L 6.1875 -1.421875 C 6.234375 -1.59375 6.28125 -1.765625 6.3125 -1.921875 C 6.421875 -2.375 6.4375 -2.390625 7 -2.40625 C 7.0625 -2.40625 7.171875 -2.421875 7.171875 -2.609375 C 7.171875 -2.671875 7.109375 -2.71875 7.03125 -2.71875 C 6.8125 -2.71875 6.21875 -2.6875 6 -2.6875 C 5.6875 -2.6875 4.90625 -2.71875 4.59375 -2.71875 C 4.515625 -2.71875 4.390625 -2.71875 4.390625 -2.515625 C 4.390625 -2.40625 4.46875 -2.40625 4.6875 -2.40625 C 4.703125 -2.40625 4.984375 -2.40625 5.21875 -2.390625 C 5.46875 -2.359375 5.53125 -2.328125 5.53125 -2.203125 C 5.53125 -2.109375 5.421875 -1.65625 5.3125 -1.296875 C 5.03125 -0.203125 3.75 -0.09375 3.40625 -0.09375 C 2.4375 -0.09375 1.40625 -0.65625 1.40625 -2.171875 C 1.40625 -2.484375 1.5 -4.125 2.546875 -5.421875 C 3.078125 -6.09375 4.046875 -6.703125 5.03125 -6.703125 C 6.046875 -6.703125 6.625 -5.9375 6.625 -4.78125 C 6.625 -4.375 6.59375 -4.375 6.59375 -4.265625 C 6.59375 -4.171875 6.703125 -4.171875 6.75 -4.171875 C 6.875 -4.171875 6.875 -4.1875 6.921875 -4.375 Z M 7.546875 -6.90625 "/>
</g>
<g id="glyph-1-0">
<path d="M 2.75 -5.890625 C 2.75 -6.359375 2.765625 -6.453125 3.359375 -6.453125 C 3.515625 -6.453125 3.671875 -6.453125 3.671875 -6.625 C 3.671875 -6.8125 3.515625 -6.8125 3.34375 -6.8125 L 0.53125 -6.8125 C 0.359375 -6.8125 0.203125 -6.8125 0.203125 -6.625 C 0.203125 -6.453125 0.375 -6.453125 0.53125 -6.453125 C 1.09375 -6.453125 1.125 -6.359375 1.125 -5.890625 L 1.125 -0.921875 C 1.125 -0.4375 1.09375 -0.34375 0.5 -0.34375 C 0.375 -0.34375 0.203125 -0.34375 0.203125 -0.171875 C 0.203125 0 0.359375 0 0.53125 0 L 3.34375 0 C 3.515625 0 3.671875 0 3.671875 -0.171875 C 3.671875 -0.34375 3.5 -0.34375 3.390625 -0.34375 C 2.78125 -0.34375 2.75 -0.421875 2.75 -0.921875 Z M 1.46875 -5.90625 C 1.46875 -6.0625 1.46875 -6.28125 1.375 -6.453125 L 2.484375 -6.453125 C 2.390625 -6.28125 2.390625 -6.0625 2.390625 -5.90625 L 2.390625 -0.890625 C 2.390625 -0.75 2.390625 -0.53125 2.484375 -0.34375 L 1.375 -0.34375 C 1.46875 -0.53125 1.46875 -0.75 1.46875 -0.890625 Z M 1.46875 -5.90625 "/>
</g>
</g>
<clipPath id="clip-0">
<path clip-rule="nonzero" d="M 0.0546875 0 L 113.507812 0 L 113.507812 79.539062 L 0.0546875 79.539062 Z M 0.0546875 0 "/>
</clipPath>
</defs>
<g clip-path="url(#clip-0)">
<path fill-rule="nonzero" fill="rgb(13.175964%, 23.84491%, 14.744568%)" fill-opacity="1" stroke-width="0.3985" stroke-linecap="butt" stroke-linejoin="miter" stroke="rgb(100%, 100%, 100%)" stroke-opacity="1" stroke-miterlimit="10" d="M 56.693182 0.00080168 C 56.693182 21.919286 31.311617 39.685207 -0.00106356 39.685207 C -31.309826 39.685207 -56.69531 21.919286 -56.69531 0.00080168 C -56.69531 -21.917683 -31.309826 -39.687521 -0.00106356 -39.687521 C 31.311617 -39.687521 56.693182 -21.917683 56.693182 0.00080168 Z M 56.693182 0.00080168 " transform="matrix(0.997125, 0, 0, -0.997125, 56.782311, 39.770331)"/>
</g>
<g fill="rgb(100%, 100%, 100%)" fill-opacity="1">
<use xlink:href="#glyph-0-0" x="4.826115" y="30.408324"/>
</g>
<path fill-rule="nonzero" fill="rgb(12.156677%, 14.118958%, 14.118958%)" fill-opacity="1" stroke-width="0.3985" stroke-linecap="butt" stroke-linejoin="miter" stroke="rgb(100%, 100%, 100%)" stroke-opacity="1" stroke-miterlimit="10" d="M 22.677418 0.00080168 C 22.677418 6.260987 12.523225 11.338084 -0.00106356 11.338084 C -12.525352 11.338084 -22.675628 6.260987 -22.675628 0.00080168 C -22.675628 -6.263301 -12.525352 -11.340398 -0.00106356 -11.340398 C 12.523225 -11.340398 22.677418 -6.263301 22.677418 0.00080168 Z M 22.677418 0.00080168 " transform="matrix(0.997125, 0, 0, -0.997125, 56.782311, 39.770331)"/>
<path fill-rule="nonzero" fill="rgb(83.898926%, 15.299988%, 15.699768%)" fill-opacity="1" d="M 78.554688 53.902344 C 78.554688 52.804688 77.664062 51.917969 76.566406 51.917969 C 75.46875 51.917969 74.582031 52.804688 74.582031 53.902344 C 74.582031 55 75.46875 55.890625 76.566406 55.890625 C 77.664062 55.890625 78.554688 55 78.554688 53.902344 Z M 78.554688 53.902344 "/>
<g fill="rgb(100%, 100%, 100%)" fill-opacity="1">
<use xlink:href="#glyph-1-0" x="79.60351" y="57.324716"/>
</g>
</svg>
