<?xml version="1.0" encoding="UTF-8"?>
<svg xmlns="http://www.w3.org/2000/svg" xmlns:xlink="http://www.w3.org/1999/xlink" width="338.926" height="149.445" viewBox="0 0 338.926 149.445">
<defs>
<g>
<g id="glyph-0-0">
<path d="M 2.765625 -2.8125 L 4.25 -2.8125 C 5.703125 -2.8125 6.875 -3.796875 6.875 -4.75 C 6.875 -5.453125 6.25 -6.109375 5.078125 -6.109375 L 2.125 -6.109375 C 1.96875 -6.109375 1.859375 -6.109375 1.859375 -5.9375 C 1.859375 -5.828125 1.9375 -5.828125 2.125 -5.828125 C 2.15625 -5.828125 2.328125 -5.828125 2.46875 -5.8125 C 2.625 -5.796875 2.6875 -5.78125 2.6875 -5.671875 C 2.6875 -5.625 2.671875 -5.59375 2.640625 -5.5 L 1.4375 -0.671875 C 1.359375 -0.359375 1.34375 -0.28125 0.671875 -0.28125 C 0.5 -0.28125 0.40625 -0.28125 0.40625 -0.109375 C 0.40625 -0.015625 0.46875 0 0.53125 0 C 0.703125 0 0.921875 -0.015625 1.09375 -0.015625 C 1.375 -0.03125 1.390625 -0.03125 1.671875 -0.03125 C 1.953125 -0.03125 1.96875 -0.03125 2.25 -0.015625 C 2.421875 -0.015625 2.65625 0 2.828125 0 C 2.890625 0 3 0 3 -0.15625 C 3 -0.28125 2.90625 -0.28125 2.71875 -0.28125 C 2.6875 -0.28125 2.53125 -0.28125 2.390625 -0.296875 C 2.1875 -0.328125 2.1875 -0.359375 2.1875 -0.4375 C 2.1875 -0.46875 2.1875 -0.484375 2.21875 -0.640625 Z M 3.40625 -5.484375 C 3.484375 -5.796875 3.5 -5.828125 3.875 -5.828125 L 4.78125 -5.828125 C 5.484375 -5.828125 6.03125 -5.609375 6.03125 -4.953125 C 6.03125 -4.765625 5.9375 -3.9375 5.46875 -3.5 C 5.265625 -3.328125 4.859375 -3.0625 4.09375 -3.0625 L 2.796875 -3.0625 Z M 3.40625 -5.484375 "/>
</g>
<g id="glyph-0-1">
<path d="M 3.5625 -1.1875 C 3.53125 -1.828125 3.390625 -2.46875 3.125 -3.0625 C 2.828125 -3.703125 2.40625 -3.953125 1.9375 -3.953125 C 0.796875 -3.953125 0.15625 -2.625 0.15625 -2.328125 C 0.15625 -2.21875 0.265625 -2.21875 0.28125 -2.21875 C 0.359375 -2.21875 0.390625 -2.25 0.40625 -2.3125 C 0.703125 -3.140625 1.53125 -3.28125 1.828125 -3.28125 C 3.265625 -3.28125 3.3125 -1.578125 3.3125 -1 C 3.3125 -0.46875 3.265625 -0.34375 3.21875 -0.21875 C 3 0.578125 2.75 1.5 2.75 1.734375 C 2.75 1.796875 2.75 1.9375 2.875 1.9375 C 2.9375 1.9375 3.015625 1.9375 3.171875 1.390625 C 3.40625 0.5625 3.46875 0.078125 3.515625 -0.28125 C 3.53125 -0.390625 4 -1.828125 4.8125 -3.4375 C 4.953125 -3.71875 4.953125 -3.734375 4.953125 -3.75 C 4.953125 -3.8125 4.921875 -3.859375 4.84375 -3.859375 C 4.828125 -3.859375 4.765625 -3.859375 4.734375 -3.796875 C 4.515625 -3.4375 4.3125 -2.96875 4.125 -2.546875 C 4.078125 -2.453125 3.828125 -1.90625 3.5625 -1.1875 Z M 3.5625 -1.1875 "/>
</g>
<g id="glyph-0-2">
<path d="M 4.609375 -3.734375 L 6.421875 -5.09375 L 6.53125 -5.15625 C 7.09375 -5.546875 7.421875 -5.78125 7.953125 -5.828125 C 8.015625 -5.84375 8.109375 -5.84375 8.109375 -5.984375 C 8.109375 -6.03125 8.09375 -6.109375 8.015625 -6.109375 C 7.9375 -6.109375 7.890625 -6.078125 7.34375 -6.078125 C 7.03125 -6.078125 6.6875 -6.109375 6.375 -6.109375 C 6.328125 -6.109375 6.21875 -6.109375 6.21875 -5.9375 C 6.21875 -5.84375 6.3125 -5.828125 6.34375 -5.828125 C 6.40625 -5.8125 6.59375 -5.8125 6.59375 -5.671875 C 6.59375 -5.59375 6.53125 -5.484375 6.40625 -5.375 C 6.375 -5.328125 6.359375 -5.328125 6.34375 -5.3125 C 6.3125 -5.265625 6.296875 -5.265625 6.25 -5.234375 L 2.6875 -2.5625 L 3.40625 -5.421875 C 3.484375 -5.75 3.515625 -5.828125 4.203125 -5.828125 C 4.359375 -5.828125 4.453125 -5.828125 4.453125 -5.984375 C 4.453125 -6.0625 4.390625 -6.109375 4.3125 -6.109375 C 4.140625 -6.109375 3.9375 -6.09375 3.75 -6.09375 C 3.5625 -6.078125 3.359375 -6.078125 3.1875 -6.078125 C 2.890625 -6.078125 2.875 -6.078125 2.609375 -6.09375 C 2.4375 -6.09375 2.203125 -6.109375 2.03125 -6.109375 C 1.96875 -6.109375 1.84375 -6.109375 1.84375 -5.9375 C 1.84375 -5.828125 1.9375 -5.828125 2.125 -5.828125 C 2.15625 -5.828125 2.3125 -5.828125 2.453125 -5.8125 C 2.609375 -5.796875 2.671875 -5.78125 2.671875 -5.671875 C 2.671875 -5.625 2.65625 -5.59375 2.640625 -5.5 L 1.4375 -0.671875 C 1.34375 -0.359375 1.328125 -0.28125 0.65625 -0.28125 C 0.484375 -0.28125 0.390625 -0.28125 0.390625 -0.109375 C 0.390625 -0.015625 0.46875 0 0.53125 0 C 0.703125 0 0.921875 -0.015625 1.09375 -0.015625 C 1.359375 -0.03125 1.375 -0.03125 1.65625 -0.03125 C 1.953125 -0.03125 1.96875 -0.03125 2.234375 -0.015625 C 2.40625 -0.015625 2.640625 0 2.8125 0 C 2.875 0 3 0 3 -0.15625 C 3 -0.28125 2.90625 -0.28125 2.71875 -0.28125 C 2.6875 -0.28125 2.515625 -0.28125 2.375 -0.296875 C 2.1875 -0.328125 2.171875 -0.359375 2.171875 -0.4375 C 2.171875 -0.515625 2.25 -0.8125 2.609375 -2.21875 L 3.984375 -3.25 L 5.125 -0.75 C 5.171875 -0.640625 5.1875 -0.609375 5.1875 -0.546875 C 5.1875 -0.28125 4.8125 -0.28125 4.734375 -0.28125 C 4.625 -0.28125 4.515625 -0.28125 4.515625 -0.109375 C 4.515625 -0.03125 4.609375 0 4.671875 0 C 4.828125 0 5.015625 -0.015625 5.1875 -0.015625 C 5.359375 -0.015625 5.546875 -0.03125 5.734375 -0.03125 C 5.875 -0.03125 6.125 -0.03125 6.1875 -0.015625 L 6.625 0 C 6.65625 0 6.78125 0 6.78125 -0.15625 C 6.78125 -0.28125 6.671875 -0.28125 6.625 -0.28125 C 6.3125 -0.28125 6.15625 -0.328125 6 -0.65625 Z M 4.609375 -3.734375 "/>
</g>
<g id="glyph-1-0">
<path d="M 2.9375 -1.328125 L 4.859375 -1.328125 C 4.9375 -1.328125 5.09375 -1.328125 5.09375 -1.484375 C 5.09375 -1.640625 4.9375 -1.640625 4.859375 -1.640625 L 2.9375 -1.640625 L 2.9375 -3.578125 C 2.9375 -3.65625 2.9375 -3.796875 2.78125 -3.796875 C 2.625 -3.796875 2.625 -3.65625 2.625 -3.578125 L 2.625 -1.640625 L 0.703125 -1.640625 C 0.625 -1.640625 0.46875 -1.640625 0.46875 -1.484375 C 0.46875 -1.328125 0.625 -1.328125 0.703125 -1.328125 L 2.625 -1.328125 L 2.625 0.59375 C 2.625 0.671875 2.625 0.828125 2.78125 0.828125 C 2.9375 0.828125 2.9375 0.671875 2.9375 0.59375 Z M 2.9375 -1.328125 "/>
</g>
<g id="glyph-2-0">
<path d="M 4.734375 -1.328125 C 4.828125 -1.328125 4.984375 -1.328125 4.984375 -1.484375 C 4.984375 -1.640625 4.828125 -1.640625 4.734375 -1.640625 L 0.984375 -1.640625 C 0.890625 -1.640625 0.75 -1.640625 0.75 -1.484375 C 0.75 -1.328125 0.890625 -1.328125 0.984375 -1.328125 Z M 4.734375 -1.328125 "/>
</g>
<g id="glyph-3-0">
<path d="M 1.625 -4.53125 C 1.15625 -4.828125 1.125 -5.171875 1.125 -5.34375 C 1.125 -5.9375 1.765625 -6.359375 2.46875 -6.359375 C 3.1875 -6.359375 3.828125 -5.84375 3.828125 -5.125 C 3.828125 -4.5625 3.4375 -4.09375 2.84375 -3.734375 Z M 3.0625 -3.59375 C 3.78125 -3.953125 4.265625 -4.46875 4.265625 -5.125 C 4.265625 -6.046875 3.390625 -6.609375 2.484375 -6.609375 C 1.484375 -6.609375 0.6875 -5.875 0.6875 -4.953125 C 0.6875 -4.765625 0.703125 -4.328125 1.125 -3.859375 C 1.234375 -3.734375 1.59375 -3.5 1.84375 -3.328125 C 1.265625 -3.03125 0.421875 -2.484375 0.421875 -1.5 C 0.421875 -0.453125 1.421875 0.21875 2.46875 0.21875 C 3.59375 0.21875 4.53125 -0.609375 4.53125 -1.671875 C 4.53125 -2.03125 4.421875 -2.46875 4.046875 -2.890625 C 3.859375 -3.09375 3.703125 -3.1875 3.0625 -3.59375 Z M 2.078125 -3.171875 L 3.296875 -2.40625 C 3.578125 -2.21875 4.03125 -1.921875 4.03125 -1.3125 C 4.03125 -0.578125 3.296875 -0.0625 2.484375 -0.0625 C 1.625 -0.0625 0.90625 -0.671875 0.90625 -1.5 C 0.90625 -2.078125 1.234375 -2.703125 2.078125 -3.171875 Z M 2.078125 -3.171875 "/>
</g>
<g id="glyph-3-1">
<path d="M 3.296875 -0.75 C 3.34375 -0.359375 3.609375 0.0625 4.078125 0.0625 C 4.28125 0.0625 4.890625 -0.078125 4.890625 -0.890625 L 4.890625 -1.4375 L 4.640625 -1.4375 L 4.640625 -0.890625 C 4.640625 -0.3125 4.390625 -0.25 4.28125 -0.25 C 3.953125 -0.25 3.921875 -0.6875 3.921875 -0.75 L 3.921875 -2.734375 C 3.921875 -3.140625 3.921875 -3.53125 3.5625 -3.90625 C 3.171875 -4.28125 2.671875 -4.4375 2.203125 -4.4375 C 1.390625 -4.4375 0.703125 -3.984375 0.703125 -3.328125 C 0.703125 -3.03125 0.90625 -2.859375 1.15625 -2.859375 C 1.4375 -2.859375 1.625 -3.0625 1.625 -3.3125 C 1.625 -3.4375 1.5625 -3.765625 1.109375 -3.765625 C 1.375 -4.125 1.859375 -4.234375 2.1875 -4.234375 C 2.671875 -4.234375 3.234375 -3.84375 3.234375 -2.953125 L 3.234375 -2.59375 C 2.734375 -2.5625 2.03125 -2.53125 1.40625 -2.234375 C 0.671875 -1.890625 0.421875 -1.375 0.421875 -0.9375 C 0.421875 -0.140625 1.375 0.109375 2 0.109375 C 2.65625 0.109375 3.109375 -0.28125 3.296875 -0.75 Z M 3.234375 -2.375 L 3.234375 -1.390625 C 3.234375 -0.453125 2.515625 -0.109375 2.078125 -0.109375 C 1.59375 -0.109375 1.1875 -0.453125 1.1875 -0.953125 C 1.1875 -1.5 1.59375 -2.328125 3.234375 -2.375 Z M 3.234375 -2.375 "/>
</g>
<g id="glyph-3-2">
<path d="M 1.65625 -3.296875 L 1.65625 -4.390625 L 0.28125 -4.28125 L 0.28125 -3.96875 C 0.96875 -3.96875 1.046875 -3.90625 1.046875 -3.40625 L 1.046875 -0.75 C 1.046875 -0.3125 0.9375 -0.3125 0.28125 -0.3125 L 0.28125 0 C 0.671875 -0.015625 1.125 -0.03125 1.40625 -0.03125 C 1.8125 -0.03125 2.265625 -0.03125 2.671875 0 L 2.671875 -0.3125 L 2.453125 -0.3125 C 1.71875 -0.3125 1.703125 -0.421875 1.703125 -0.78125 L 1.703125 -2.296875 C 1.703125 -3.28125 2.125 -4.171875 2.875 -4.171875 C 2.953125 -4.171875 2.96875 -4.171875 2.984375 -4.15625 C 2.953125 -4.140625 2.765625 -4.03125 2.765625 -3.765625 C 2.765625 -3.5 2.96875 -3.34375 3.1875 -3.34375 C 3.359375 -3.34375 3.609375 -3.46875 3.609375 -3.78125 C 3.609375 -4.09375 3.296875 -4.390625 2.875 -4.390625 C 2.15625 -4.390625 1.796875 -3.71875 1.65625 -3.296875 Z M 1.65625 -3.296875 "/>
</g>
<g id="glyph-3-3">
<path d="M 1.109375 -2.5 C 1.171875 -3.984375 2 -4.234375 2.34375 -4.234375 C 3.359375 -4.234375 3.46875 -2.890625 3.46875 -2.5 Z M 1.09375 -2.296875 L 3.875 -2.296875 C 4.09375 -2.296875 4.125 -2.296875 4.125 -2.5 C 4.125 -3.484375 3.578125 -4.4375 2.34375 -4.4375 C 1.1875 -4.4375 0.28125 -3.421875 0.28125 -2.1875 C 0.28125 -0.859375 1.3125 0.109375 2.453125 0.109375 C 3.671875 0.109375 4.125 -0.984375 4.125 -1.1875 C 4.125 -1.28125 4.03125 -1.296875 3.984375 -1.296875 C 3.90625 -1.296875 3.875 -1.234375 3.859375 -1.15625 C 3.515625 -0.140625 2.625 -0.140625 2.515625 -0.140625 C 2.03125 -0.140625 1.625 -0.4375 1.40625 -0.796875 C 1.09375 -1.28125 1.09375 -1.9375 1.09375 -2.296875 Z M 1.09375 -2.296875 "/>
</g>
<g id="glyph-3-4">
<path d="M 3.28125 2.375 C 3.28125 2.34375 3.28125 2.328125 3.109375 2.15625 C 1.875 0.90625 1.5625 -0.96875 1.5625 -2.484375 C 1.5625 -4.203125 1.9375 -5.9375 3.15625 -7.171875 C 3.28125 -7.296875 3.28125 -7.3125 3.28125 -7.34375 C 3.28125 -7.40625 3.25 -7.4375 3.1875 -7.4375 C 3.078125 -7.4375 2.1875 -6.765625 1.609375 -5.5 C 1.09375 -4.421875 0.984375 -3.3125 0.984375 -2.484375 C 0.984375 -1.703125 1.09375 -0.5 1.640625 0.609375 C 2.234375 1.828125 3.078125 2.484375 3.1875 2.484375 C 3.25 2.484375 3.28125 2.453125 3.28125 2.375 Z M 3.28125 2.375 "/>
</g>
<g id="glyph-3-5">
<path d="M 2.875 -2.484375 C 2.875 -3.25 2.765625 -4.453125 2.21875 -5.578125 C 1.625 -6.796875 0.765625 -7.4375 0.671875 -7.4375 C 0.609375 -7.4375 0.5625 -7.40625 0.5625 -7.34375 C 0.5625 -7.3125 0.5625 -7.296875 0.75 -7.109375 C 1.71875 -6.125 2.296875 -4.546875 2.296875 -2.484375 C 2.296875 -0.78125 1.921875 0.96875 0.6875 2.21875 C 0.5625 2.328125 0.5625 2.34375 0.5625 2.375 C 0.5625 2.4375 0.609375 2.484375 0.671875 2.484375 C 0.765625 2.484375 1.65625 1.8125 2.25 0.546875 C 2.75 -0.546875 2.875 -1.640625 2.875 -2.484375 Z M 2.875 -2.484375 "/>
</g>
<g id="glyph-3-6">
<path d="M 6.8125 -3.25 C 6.96875 -3.25 7.15625 -3.25 7.15625 -3.4375 C 7.15625 -3.640625 6.96875 -3.640625 6.828125 -3.640625 L 0.890625 -3.640625 C 0.75 -3.640625 0.5625 -3.640625 0.5625 -3.4375 C 0.5625 -3.25 0.75 -3.25 0.890625 -3.25 Z M 6.828125 -1.3125 C 6.96875 -1.3125 7.15625 -1.3125 7.15625 -1.515625 C 7.15625 -1.71875 6.96875 -1.71875 6.8125 -1.71875 L 0.890625 -1.71875 C 0.75 -1.71875 0.5625 -1.71875 0.5625 -1.515625 C 0.5625 -1.3125 0.75 -1.3125 0.890625 -1.3125 Z M 6.828125 -1.3125 "/>
</g>
<g id="glyph-3-7">
<path d="M 2.0625 -1.921875 C 2.28125 -1.890625 3.09375 -1.71875 3.09375 -1.015625 C 3.09375 -0.5 2.75 -0.109375 1.96875 -0.109375 C 1.140625 -0.109375 0.78125 -0.671875 0.59375 -1.515625 C 0.5625 -1.640625 0.5625 -1.6875 0.453125 -1.6875 C 0.328125 -1.6875 0.328125 -1.625 0.328125 -1.4375 L 0.328125 -0.125 C 0.328125 0.046875 0.328125 0.109375 0.4375 0.109375 C 0.484375 0.109375 0.5 0.09375 0.6875 -0.09375 C 0.703125 -0.109375 0.703125 -0.125 0.890625 -0.3125 C 1.3125 0.09375 1.765625 0.109375 1.96875 0.109375 C 3.109375 0.109375 3.578125 -0.5625 3.578125 -1.265625 C 3.578125 -1.796875 3.28125 -2.09375 3.15625 -2.21875 C 2.828125 -2.53125 2.4375 -2.609375 2.03125 -2.6875 C 1.46875 -2.796875 0.796875 -2.921875 0.796875 -3.5 C 0.796875 -3.84375 1.0625 -4.25 1.921875 -4.25 C 3 -4.25 3.0625 -3.359375 3.078125 -3.0625 C 3.078125 -2.96875 3.171875 -2.96875 3.1875 -2.96875 C 3.328125 -2.96875 3.328125 -3.015625 3.328125 -3.203125 L 3.328125 -4.203125 C 3.328125 -4.375 3.328125 -4.4375 3.21875 -4.4375 C 3.171875 -4.4375 3.140625 -4.4375 3.015625 -4.328125 C 2.984375 -4.28125 2.890625 -4.203125 2.84375 -4.171875 C 2.46875 -4.4375 2.0625 -4.4375 1.921875 -4.4375 C 0.703125 -4.4375 0.328125 -3.78125 0.328125 -3.21875 C 0.328125 -2.875 0.484375 -2.59375 0.75 -2.375 C 1.078125 -2.125 1.34375 -2.0625 2.0625 -1.921875 Z M 2.0625 -1.921875 "/>
</g>
<g id="glyph-3-8">
<path d="M 1.75 -4.390625 L 0.359375 -4.28125 L 0.359375 -3.96875 C 1.015625 -3.96875 1.09375 -3.90625 1.09375 -3.421875 L 1.09375 -0.75 C 1.09375 -0.3125 0.984375 -0.3125 0.328125 -0.3125 L 0.328125 0 C 0.640625 -0.015625 1.1875 -0.03125 1.421875 -0.03125 C 1.765625 -0.03125 2.109375 -0.015625 2.453125 0 L 2.453125 -0.3125 C 1.796875 -0.3125 1.75 -0.359375 1.75 -0.75 Z M 1.796875 -6.109375 C 1.796875 -6.421875 1.546875 -6.640625 1.265625 -6.640625 C 0.96875 -6.640625 0.75 -6.375 0.75 -6.109375 C 0.75 -5.84375 0.96875 -5.59375 1.265625 -5.59375 C 1.546875 -5.59375 1.796875 -5.796875 1.796875 -6.109375 Z M 1.796875 -6.109375 "/>
</g>
<g id="glyph-3-9">
<path d="M 3.765625 -0.546875 L 3.765625 0.109375 L 5.234375 0 L 5.234375 -0.3125 C 4.53125 -0.3125 4.453125 -0.375 4.453125 -0.859375 L 4.453125 -6.890625 L 3.03125 -6.78125 L 3.03125 -6.46875 C 3.71875 -6.46875 3.796875 -6.40625 3.796875 -5.90625 L 3.796875 -3.765625 C 3.515625 -4.125 3.078125 -4.390625 2.546875 -4.390625 C 1.375 -4.390625 0.34375 -3.40625 0.34375 -2.140625 C 0.34375 -0.875 1.3125 0.109375 2.4375 0.109375 C 3.078125 0.109375 3.515625 -0.234375 3.765625 -0.546875 Z M 3.765625 -3.203125 L 3.765625 -1.171875 C 3.765625 -0.984375 3.765625 -0.96875 3.65625 -0.796875 C 3.359375 -0.328125 2.921875 -0.109375 2.484375 -0.109375 C 2.046875 -0.109375 1.6875 -0.359375 1.453125 -0.75 C 1.1875 -1.15625 1.15625 -1.71875 1.15625 -2.125 C 1.15625 -2.484375 1.1875 -3.078125 1.46875 -3.53125 C 1.671875 -3.84375 2.046875 -4.171875 2.59375 -4.171875 C 2.9375 -4.171875 3.359375 -4.015625 3.65625 -3.578125 C 3.765625 -3.40625 3.765625 -3.390625 3.765625 -3.203125 Z M 3.765625 -3.203125 "/>
</g>
<g id="glyph-3-10">
<path d="M 1.703125 -3.734375 L 1.703125 -6.890625 L 0.28125 -6.78125 L 0.28125 -6.46875 C 0.96875 -6.46875 1.046875 -6.40625 1.046875 -5.90625 L 1.046875 0 L 1.296875 0 C 1.3125 -0.015625 1.390625 -0.15625 1.65625 -0.609375 C 1.8125 -0.390625 2.21875 0.109375 2.953125 0.109375 C 4.140625 0.109375 5.171875 -0.859375 5.171875 -2.140625 C 5.171875 -3.40625 4.203125 -4.390625 3.0625 -4.390625 C 2.296875 -4.390625 1.859375 -3.921875 1.703125 -3.734375 Z M 1.734375 -1.125 L 1.734375 -3.171875 C 1.734375 -3.359375 1.734375 -3.375 1.84375 -3.53125 C 2.234375 -4.09375 2.78125 -4.171875 3.015625 -4.171875 C 3.46875 -4.171875 3.8125 -3.90625 4.0625 -3.53125 C 4.3125 -3.125 4.34375 -2.5625 4.34375 -2.15625 C 4.34375 -1.78125 4.328125 -1.1875 4.03125 -0.75 C 3.828125 -0.4375 3.453125 -0.109375 2.921875 -0.109375 C 2.46875 -0.109375 2.109375 -0.34375 1.875 -0.71875 C 1.734375 -0.921875 1.734375 -0.953125 1.734375 -1.125 Z M 1.734375 -1.125 "/>
</g>
<g id="glyph-3-11">
<path d="M 4.125 -3.328125 C 4.375 -3.953125 4.875 -3.96875 5.046875 -3.96875 L 5.046875 -4.28125 C 4.8125 -4.25 4.53125 -4.25 4.296875 -4.25 C 4.125 -4.25 3.65625 -4.265625 3.4375 -4.28125 L 3.4375 -3.96875 C 3.734375 -3.953125 3.90625 -3.796875 3.90625 -3.546875 C 3.90625 -3.4375 3.890625 -3.421875 3.84375 -3.296875 L 2.84375 -0.859375 L 1.734375 -3.53125 C 1.703125 -3.625 1.671875 -3.671875 1.671875 -3.703125 C 1.671875 -3.96875 2.046875 -3.96875 2.234375 -3.96875 L 2.234375 -4.28125 C 1.96875 -4.265625 1.3125 -4.25 1.15625 -4.25 C 0.890625 -4.25 0.484375 -4.25 0.1875 -4.28125 L 0.1875 -3.96875 C 0.671875 -3.96875 0.859375 -3.96875 0.984375 -3.625 L 2.484375 0 C 2.4375 0.125 2.296875 0.453125 2.234375 0.578125 C 2.015625 1.125 1.734375 1.8125 1.09375 1.8125 C 1.046875 1.8125 0.828125 1.8125 0.640625 1.640625 C 0.9375 1.59375 1.015625 1.375 1.015625 1.21875 C 1.015625 0.96875 0.828125 0.796875 0.609375 0.796875 C 0.40625 0.796875 0.1875 0.9375 0.1875 1.234375 C 0.1875 1.671875 0.609375 2.03125 1.09375 2.03125 C 1.71875 2.03125 2.140625 1.46875 2.375 0.90625 Z M 4.125 -3.328125 "/>
</g>
<g id="glyph-3-12">
<path d="M 1.90625 -0.53125 C 1.90625 -0.8125 1.671875 -1.046875 1.375 -1.046875 C 1.09375 -1.046875 0.859375 -0.8125 0.859375 -0.53125 C 0.859375 -0.234375 1.09375 0 1.375 0 C 1.671875 0 1.90625 -0.234375 1.90625 -0.53125 Z M 1.90625 -0.53125 "/>
</g>
<g id="glyph-3-13">
<path d="M 4.671875 -2.125 C 4.671875 -3.390625 3.6875 -4.4375 2.484375 -4.4375 C 1.234375 -4.4375 0.28125 -3.359375 0.28125 -2.125 C 0.28125 -0.84375 1.3125 0.109375 2.46875 0.109375 C 3.671875 0.109375 4.671875 -0.859375 4.671875 -2.125 Z M 2.484375 -0.140625 C 2.046875 -0.140625 1.625 -0.34375 1.34375 -0.796875 C 1.09375 -1.234375 1.09375 -1.84375 1.09375 -2.203125 C 1.09375 -2.59375 1.09375 -3.125 1.34375 -3.5625 C 1.609375 -4.015625 2.078125 -4.234375 2.46875 -4.234375 C 2.90625 -4.234375 3.328125 -4.015625 3.59375 -3.578125 C 3.84375 -3.15625 3.84375 -2.578125 3.84375 -2.203125 C 3.84375 -1.84375 3.84375 -1.3125 3.625 -0.875 C 3.40625 -0.421875 2.96875 -0.140625 2.484375 -0.140625 Z M 2.484375 -0.140625 "/>
</g>
<g id="glyph-3-14">
<path d="M 1.09375 -3.40625 L 1.09375 -0.75 C 1.09375 -0.3125 0.984375 -0.3125 0.3125 -0.3125 L 0.3125 0 C 0.671875 -0.015625 1.171875 -0.03125 1.4375 -0.03125 C 1.703125 -0.03125 2.21875 -0.015625 2.546875 0 L 2.546875 -0.3125 C 1.890625 -0.3125 1.78125 -0.3125 1.78125 -0.75 L 1.78125 -2.578125 C 1.78125 -3.609375 2.484375 -4.171875 3.109375 -4.171875 C 3.734375 -4.171875 3.84375 -3.625 3.84375 -3.0625 L 3.84375 -0.75 C 3.84375 -0.3125 3.734375 -0.3125 3.078125 -0.3125 L 3.078125 0 C 3.421875 -0.015625 3.921875 -0.03125 4.203125 -0.03125 C 4.453125 -0.03125 4.96875 -0.015625 5.3125 0 L 5.3125 -0.3125 C 4.796875 -0.3125 4.546875 -0.3125 4.53125 -0.609375 L 4.53125 -2.5 C 4.53125 -3.359375 4.53125 -3.65625 4.234375 -4.015625 C 4.09375 -4.1875 3.765625 -4.390625 3.1875 -4.390625 C 2.453125 -4.390625 2 -3.953125 1.71875 -3.34375 L 1.71875 -4.390625 L 0.3125 -4.28125 L 0.3125 -3.96875 C 1.015625 -3.96875 1.09375 -3.90625 1.09375 -3.40625 Z M 1.09375 -3.40625 "/>
</g>
<g id="glyph-3-15">
<path d="M 1.734375 -4.28125 L 1.734375 -5.421875 C 1.734375 -6.296875 2.21875 -6.78125 2.65625 -6.78125 C 2.671875 -6.78125 2.828125 -6.78125 2.96875 -6.703125 C 2.859375 -6.671875 2.671875 -6.53125 2.671875 -6.296875 C 2.671875 -6.0625 2.84375 -5.859375 3.109375 -5.859375 C 3.390625 -5.859375 3.546875 -6.0625 3.546875 -6.296875 C 3.546875 -6.671875 3.171875 -7 2.65625 -7 C 1.953125 -7 1.109375 -6.46875 1.109375 -5.421875 L 1.109375 -4.28125 L 0.328125 -4.28125 L 0.328125 -3.96875 L 1.109375 -3.96875 L 1.109375 -0.75 C 1.109375 -0.3125 1 -0.3125 0.34375 -0.3125 L 0.34375 0 C 0.71875 -0.015625 1.1875 -0.03125 1.46875 -0.03125 C 1.859375 -0.03125 2.328125 -0.03125 2.734375 0 L 2.734375 -0.3125 L 2.515625 -0.3125 C 1.78125 -0.3125 1.765625 -0.421875 1.765625 -0.78125 L 1.765625 -3.96875 L 2.890625 -3.96875 L 2.890625 -4.28125 Z M 1.734375 -4.28125 "/>
</g>
<g id="glyph-3-16">
<path d="M 1.71875 -3.96875 L 3.140625 -3.96875 L 3.140625 -4.28125 L 1.71875 -4.28125 L 1.71875 -6.109375 L 1.46875 -6.109375 C 1.453125 -5.28125 1.15625 -4.234375 0.1875 -4.1875 L 0.1875 -3.96875 L 1.03125 -3.96875 L 1.03125 -1.234375 C 1.03125 -0.015625 1.953125 0.109375 2.3125 0.109375 C 3.015625 0.109375 3.296875 -0.59375 3.296875 -1.234375 L 3.296875 -1.796875 L 3.046875 -1.796875 L 3.046875 -1.25 C 3.046875 -0.515625 2.75 -0.140625 2.375 -0.140625 C 1.71875 -0.140625 1.71875 -1.046875 1.71875 -1.203125 Z M 1.71875 -3.96875 "/>
</g>
<g id="glyph-3-17">
<path d="M 1.09375 -0.75 C 1.09375 -0.3125 0.984375 -0.3125 0.3125 -0.3125 L 0.3125 0 C 0.671875 -0.015625 1.171875 -0.03125 1.4375 -0.03125 C 1.703125 -0.03125 2.21875 -0.015625 2.546875 0 L 2.546875 -0.3125 C 1.890625 -0.3125 1.78125 -0.3125 1.78125 -0.75 L 1.78125 -2.578125 C 1.78125 -3.609375 2.484375 -4.171875 3.109375 -4.171875 C 3.734375 -4.171875 3.84375 -3.625 3.84375 -3.0625 L 3.84375 -0.75 C 3.84375 -0.3125 3.734375 -0.3125 3.078125 -0.3125 L 3.078125 0 C 3.421875 -0.015625 3.921875 -0.03125 4.203125 -0.03125 C 4.453125 -0.03125 4.96875 -0.015625 5.3125 0 L 5.3125 -0.3125 C 4.796875 -0.3125 4.546875 -0.3125 4.53125 -0.609375 L 4.53125 -2.5 C 4.53125 -3.359375 4.53125 -3.65625 4.234375 -4.015625 C 4.09375 -4.1875 3.765625 -4.390625 3.1875 -4.390625 C 2.34375 -4.390625 1.921875 -3.796875 1.75 -3.40625 L 1.75 -6.890625 L 0.3125 -6.78125 L 0.3125 -6.46875 C 1.015625 -6.46875 1.09375 -6.40625 1.09375 -5.90625 Z M 1.09375 -0.75 "/>
</g>
<g id="glyph-3-18">
<path d="M 6.140625 -3.328125 C 6.3125 -3.828125 6.625 -3.953125 6.96875 -3.96875 L 6.96875 -4.28125 C 6.75 -4.25 6.46875 -4.25 6.25 -4.25 C 5.96875 -4.25 5.515625 -4.265625 5.328125 -4.28125 L 5.328125 -3.96875 C 5.6875 -3.953125 5.90625 -3.78125 5.90625 -3.5 C 5.90625 -3.4375 5.90625 -3.40625 5.859375 -3.28125 L 4.953125 -0.75 L 3.96875 -3.515625 C 3.921875 -3.625 3.921875 -3.65625 3.921875 -3.703125 C 3.921875 -3.96875 4.3125 -3.96875 4.5 -3.96875 L 4.5 -4.28125 C 4.21875 -4.265625 3.703125 -4.25 3.46875 -4.25 C 3.171875 -4.25 2.890625 -4.25 2.59375 -4.28125 L 2.59375 -3.96875 C 2.953125 -3.96875 3.109375 -3.953125 3.21875 -3.8125 C 3.265625 -3.765625 3.375 -3.46875 3.4375 -3.28125 L 2.59375 -0.875 L 1.640625 -3.515625 C 1.59375 -3.640625 1.59375 -3.65625 1.59375 -3.703125 C 1.59375 -3.96875 1.984375 -3.96875 2.1875 -3.96875 L 2.1875 -4.28125 C 1.890625 -4.265625 1.328125 -4.25 1.09375 -4.25 C 1.0625 -4.25 0.53125 -4.25 0.171875 -4.28125 L 0.171875 -3.96875 C 0.671875 -3.96875 0.796875 -3.9375 0.90625 -3.625 L 2.15625 -0.109375 C 2.21875 0.03125 2.25 0.109375 2.375 0.109375 C 2.5 0.109375 2.515625 0.046875 2.5625 -0.09375 L 3.578125 -2.890625 L 4.578125 -0.078125 C 4.625 0.03125 4.65625 0.109375 4.78125 0.109375 C 4.90625 0.109375 4.9375 0.015625 4.984375 -0.078125 Z M 6.140625 -3.328125 "/>
</g>
<g id="glyph-3-19">
<path d="M 1.046875 -0.75 C 1.046875 -0.3125 0.9375 -0.3125 0.28125 -0.3125 L 0.28125 0 C 0.609375 -0.015625 1.078125 -0.03125 1.359375 -0.03125 C 1.65625 -0.03125 2.046875 -0.015625 2.453125 0 L 2.453125 -0.3125 C 1.78125 -0.3125 1.671875 -0.3125 1.671875 -0.75 L 1.671875 -1.78125 L 2.3125 -2.328125 C 3.078125 -1.265625 3.5 -0.71875 3.5 -0.53125 C 3.5 -0.34375 3.328125 -0.3125 3.140625 -0.3125 L 3.140625 0 C 3.40625 -0.015625 4 -0.03125 4.203125 -0.03125 C 4.5 -0.03125 4.78125 -0.015625 5.0625 0 L 5.0625 -0.3125 C 4.703125 -0.3125 4.484375 -0.3125 4.109375 -0.828125 L 2.84375 -2.609375 C 2.84375 -2.625 2.78125 -2.6875 2.78125 -2.71875 C 2.78125 -2.765625 3.5 -3.359375 3.59375 -3.4375 C 4.21875 -3.9375 4.640625 -3.953125 4.84375 -3.96875 L 4.84375 -4.28125 C 4.546875 -4.25 4.421875 -4.25 4.140625 -4.25 C 3.796875 -4.25 3.171875 -4.265625 3.03125 -4.28125 L 3.03125 -3.96875 C 3.21875 -3.953125 3.328125 -3.84375 3.328125 -3.71875 C 3.328125 -3.515625 3.1875 -3.40625 3.109375 -3.328125 L 1.703125 -2.125 L 1.703125 -6.890625 L 0.28125 -6.78125 L 0.28125 -6.46875 C 0.96875 -6.46875 1.046875 -6.40625 1.046875 -5.90625 Z M 1.046875 -0.75 "/>
</g>
<g id="glyph-3-20">
<path d="M 2.015625 -0.015625 C 2.015625 -0.640625 1.78125 -1.046875 1.375 -1.046875 C 1.03125 -1.046875 0.859375 -0.78125 0.859375 -0.53125 C 0.859375 -0.265625 1.015625 0 1.375 0 C 1.53125 0 1.65625 -0.0625 1.75 -0.140625 L 1.78125 -0.15625 C 1.78125 -0.15625 1.796875 -0.15625 1.796875 -0.015625 C 1.796875 0.625 1.515625 1.234375 1.078125 1.703125 C 1.015625 1.75 1.015625 1.765625 1.015625 1.8125 C 1.015625 1.875 1.0625 1.921875 1.109375 1.921875 C 1.234375 1.921875 2.015625 1.125 2.015625 -0.015625 Z M 2.015625 -0.015625 "/>
</g>
<g id="glyph-3-21">
<path d="M 1.15625 -2.15625 C 1.15625 -3.78125 1.96875 -4.203125 2.5 -4.203125 C 2.59375 -4.203125 3.21875 -4.1875 3.5625 -3.828125 C 3.15625 -3.796875 3.09375 -3.5 3.09375 -3.375 C 3.09375 -3.109375 3.28125 -2.921875 3.546875 -2.921875 C 3.8125 -2.921875 4.015625 -3.078125 4.015625 -3.390625 C 4.015625 -4.0625 3.25 -4.4375 2.484375 -4.4375 C 1.25 -4.4375 0.34375 -3.375 0.34375 -2.140625 C 0.34375 -0.875 1.3125 0.109375 2.46875 0.109375 C 3.796875 0.109375 4.125 -1.078125 4.125 -1.1875 C 4.125 -1.28125 4.015625 -1.28125 3.984375 -1.28125 C 3.90625 -1.28125 3.875 -1.234375 3.859375 -1.1875 C 3.578125 -0.265625 2.921875 -0.140625 2.5625 -0.140625 C 2.03125 -0.140625 1.15625 -0.5625 1.15625 -2.15625 Z M 1.15625 -2.15625 "/>
</g>
<g id="glyph-3-22">
<path d="M 1.90625 -3.75 C 1.90625 -4.03125 1.671875 -4.28125 1.375 -4.28125 C 1.09375 -4.28125 0.859375 -4.03125 0.859375 -3.75 C 0.859375 -3.46875 1.09375 -3.21875 1.375 -3.21875 C 1.671875 -3.21875 1.90625 -3.46875 1.90625 -3.75 Z M 1.71875 -0.109375 C 1.71875 0.171875 1.71875 0.9375 1.078125 1.671875 C 1.015625 1.75 1.015625 1.78125 1.015625 1.8125 C 1.015625 1.875 1.0625 1.921875 1.109375 1.921875 C 1.21875 1.921875 1.9375 1.125 1.9375 -0.03125 C 1.9375 -0.3125 1.921875 -1.046875 1.375 -1.046875 C 1.03125 -1.046875 0.859375 -0.78125 0.859375 -0.53125 C 0.859375 -0.265625 1.015625 0 1.375 0 C 1.421875 0 1.453125 0 1.453125 -0.015625 C 1.53125 -0.015625 1.640625 -0.046875 1.71875 -0.109375 Z M 1.71875 -0.109375 "/>
</g>
<g id="glyph-3-23">
<path d="M 3.875 -0.78125 L 3.875 0.109375 L 5.3125 0 L 5.3125 -0.3125 C 4.609375 -0.3125 4.53125 -0.375 4.53125 -0.859375 L 4.53125 -4.390625 L 3.078125 -4.28125 L 3.078125 -3.96875 C 3.765625 -3.96875 3.84375 -3.90625 3.84375 -3.40625 L 3.84375 -1.640625 C 3.84375 -0.78125 3.375 -0.109375 2.65625 -0.109375 C 1.8125 -0.109375 1.78125 -0.578125 1.78125 -1.09375 L 1.78125 -4.390625 L 0.3125 -4.28125 L 0.3125 -3.96875 C 1.09375 -3.96875 1.09375 -3.9375 1.09375 -3.0625 L 1.09375 -1.5625 C 1.09375 -0.796875 1.09375 0.109375 2.59375 0.109375 C 3.15625 0.109375 3.59375 -0.171875 3.875 -0.78125 Z M 3.875 -0.78125 "/>
</g>
<g id="glyph-3-24">
<path d="M 4.125 -3.296875 C 4.21875 -3.53125 4.390625 -3.953125 5.046875 -3.96875 L 5.046875 -4.28125 C 4.8125 -4.25 4.53125 -4.25 4.296875 -4.25 C 4.0625 -4.25 3.609375 -4.265625 3.4375 -4.28125 L 3.4375 -3.96875 C 3.796875 -3.953125 3.90625 -3.734375 3.90625 -3.546875 C 3.90625 -3.453125 3.890625 -3.40625 3.84375 -3.296875 L 2.84375 -0.78125 L 1.71875 -3.546875 C 1.671875 -3.671875 1.671875 -3.6875 1.671875 -3.703125 C 1.671875 -3.96875 2.046875 -3.96875 2.234375 -3.96875 L 2.234375 -4.28125 C 1.9375 -4.265625 1.375 -4.25 1.15625 -4.25 C 0.890625 -4.25 0.484375 -4.25 0.1875 -4.28125 L 0.1875 -3.96875 C 0.8125 -3.96875 0.859375 -3.90625 0.984375 -3.609375 L 2.40625 -0.078125 C 2.46875 0.0625 2.484375 0.109375 2.625 0.109375 C 2.75 0.109375 2.78125 0.015625 2.828125 -0.078125 Z M 4.125 -3.296875 "/>
</g>
<g id="glyph-3-25">
<path d="M 1.75 -6.890625 L 0.328125 -6.78125 L 0.328125 -6.46875 C 1.015625 -6.46875 1.09375 -6.40625 1.09375 -5.90625 L 1.09375 -0.75 C 1.09375 -0.3125 0.984375 -0.3125 0.328125 -0.3125 L 0.328125 0 C 0.65625 -0.015625 1.1875 -0.03125 1.421875 -0.03125 C 1.671875 -0.03125 2.15625 -0.015625 2.53125 0 L 2.53125 -0.3125 C 1.859375 -0.3125 1.75 -0.3125 1.75 -0.75 Z M 1.75 -6.890625 "/>
</g>
<g id="glyph-3-26">
<path d="M 1.09375 -3.40625 L 1.09375 -0.75 C 1.09375 -0.3125 0.984375 -0.3125 0.3125 -0.3125 L 0.3125 0 C 0.671875 -0.015625 1.171875 -0.03125 1.4375 -0.03125 C 1.703125 -0.03125 2.21875 -0.015625 2.546875 0 L 2.546875 -0.3125 C 1.890625 -0.3125 1.78125 -0.3125 1.78125 -0.75 L 1.78125 -2.578125 C 1.78125 -3.609375 2.484375 -4.171875 3.109375 -4.171875 C 3.734375 -4.171875 3.84375 -3.625 3.84375 -3.0625 L 3.84375 -0.75 C 3.84375 -0.3125 3.734375 -0.3125 3.078125 -0.3125 L 3.078125 0 C 3.421875 -0.015625 3.921875 -0.03125 4.203125 -0.03125 C 4.453125 -0.03125 4.96875 -0.015625 5.3125 0 L 5.3125 -0.3125 C 4.640625 -0.3125 4.53125 -0.3125 4.53125 -0.75 L 4.53125 -2.578125 C 4.53125 -3.609375 5.234375 -4.171875 5.875 -4.171875 C 6.5 -4.171875 6.609375 -3.625 6.609375 -3.0625 L 6.609375 -0.75 C 6.609375 -0.3125 6.5 -0.3125 5.828125 -0.3125 L 5.828125 0 C 6.1875 -0.015625 6.6875 -0.03125 6.953125 -0.03125 C 7.21875 -0.03125 7.734375 -0.015625 8.0625 0 L 8.0625 -0.3125 C 7.546875 -0.3125 7.296875 -0.3125 7.296875 -0.609375 L 7.296875 -2.5 C 7.296875 -3.359375 7.296875 -3.65625 6.984375 -4.015625 C 6.84375 -4.1875 6.515625 -4.390625 5.9375 -4.390625 C 5.109375 -4.390625 4.671875 -3.796875 4.5 -3.40625 C 4.359375 -4.28125 3.625 -4.390625 3.1875 -4.390625 C 2.453125 -4.390625 2 -3.953125 1.71875 -3.34375 L 1.71875 -4.390625 L 0.3125 -4.28125 L 0.3125 -3.96875 C 1.015625 -3.96875 1.09375 -3.90625 1.09375 -3.40625 Z M 1.09375 -3.40625 "/>
</g>
<g id="glyph-3-27">
<path d="M 1.703125 -3.734375 L 1.703125 -4.390625 L 0.28125 -4.28125 L 0.28125 -3.96875 C 0.984375 -3.96875 1.046875 -3.90625 1.046875 -3.46875 L 1.046875 1.171875 C 1.046875 1.625 0.9375 1.625 0.28125 1.625 L 0.28125 1.921875 C 0.609375 1.921875 1.125 1.890625 1.390625 1.890625 C 1.65625 1.890625 2.15625 1.921875 2.515625 1.921875 L 2.515625 1.625 C 1.84375 1.625 1.734375 1.625 1.734375 1.171875 L 1.734375 -0.578125 C 1.78125 -0.421875 2.203125 0.109375 2.953125 0.109375 C 4.140625 0.109375 5.171875 -0.859375 5.171875 -2.140625 C 5.171875 -3.40625 4.203125 -4.390625 3.09375 -4.390625 C 2.328125 -4.390625 1.90625 -3.953125 1.703125 -3.734375 Z M 1.734375 -1.125 L 1.734375 -3.34375 C 2.03125 -3.84375 2.515625 -4.140625 3.015625 -4.140625 C 3.734375 -4.140625 4.34375 -3.265625 4.34375 -2.140625 C 4.34375 -0.9375 3.65625 -0.109375 2.921875 -0.109375 C 2.515625 -0.109375 2.140625 -0.3125 1.875 -0.71875 C 1.734375 -0.921875 1.734375 -0.9375 1.734375 -1.125 Z M 1.734375 -1.125 "/>
</g>
<g id="glyph-4-0">
<path d="M 6.296875 -5.734375 C 6.40625 -6.140625 6.578125 -6.4375 7.375 -6.46875 C 7.421875 -6.46875 7.546875 -6.484375 7.546875 -6.671875 C 7.546875 -6.671875 7.546875 -6.78125 7.40625 -6.78125 C 7.078125 -6.78125 6.734375 -6.75 6.40625 -6.75 C 6.0625 -6.75 5.6875 -6.78125 5.375 -6.78125 C 5.3125 -6.78125 5.1875 -6.78125 5.1875 -6.578125 C 5.1875 -6.46875 5.28125 -6.46875 5.375 -6.46875 C 5.9375 -6.453125 6.046875 -6.25 6.046875 -6.03125 C 6.046875 -6 6.015625 -5.859375 6.015625 -5.828125 L 5.125 -2.28125 C 4.78125 -0.953125 3.640625 -0.09375 2.65625 -0.09375 C 1.96875 -0.09375 1.4375 -0.53125 1.4375 -1.375 C 1.4375 -1.40625 1.4375 -1.71875 1.546875 -2.15625 L 2.515625 -6.015625 C 2.59375 -6.375 2.625 -6.46875 3.34375 -6.46875 C 3.609375 -6.46875 3.6875 -6.46875 3.6875 -6.671875 C 3.6875 -6.78125 3.578125 -6.78125 3.546875 -6.78125 C 3.265625 -6.78125 2.546875 -6.75 2.265625 -6.75 C 1.984375 -6.75 1.28125 -6.78125 0.984375 -6.78125 C 0.90625 -6.78125 0.796875 -6.78125 0.796875 -6.578125 C 0.796875 -6.46875 0.890625 -6.46875 1.078125 -6.46875 C 1.09375 -6.46875 1.296875 -6.46875 1.453125 -6.453125 C 1.640625 -6.421875 1.71875 -6.421875 1.71875 -6.296875 C 1.71875 -6.234375 1.625 -5.8125 1.5625 -5.59375 L 1.34375 -4.71875 C 1.25 -4.328125 0.78125 -2.453125 0.734375 -2.265625 C 0.671875 -1.984375 0.671875 -1.828125 0.671875 -1.6875 C 0.671875 -0.46875 1.5625 0.21875 2.609375 0.21875 C 3.859375 0.21875 5.09375 -0.90625 5.421875 -2.21875 Z M 6.296875 -5.734375 "/>
</g>
<g id="glyph-4-1">
<path d="M 0.40625 -2.515625 C 0.796875 -3.65625 1.875 -3.671875 1.984375 -3.671875 C 3.484375 -3.671875 3.59375 -1.9375 3.59375 -1.15625 C 3.59375 -0.546875 3.546875 -0.375 3.46875 -0.171875 C 3.25 0.546875 2.953125 1.703125 2.953125 1.953125 C 2.953125 2.0625 3 2.140625 3.078125 2.140625 C 3.21875 2.140625 3.296875 1.921875 3.40625 1.53125 C 3.625 0.703125 3.734375 0.140625 3.765625 -0.171875 C 3.796875 -0.296875 3.8125 -0.421875 3.84375 -0.5625 C 4.171875 -1.53125 4.796875 -3.015625 5.203125 -3.796875 C 5.265625 -3.921875 5.390625 -4.140625 5.390625 -4.171875 C 5.390625 -4.28125 5.28125 -4.28125 5.265625 -4.28125 C 5.234375 -4.28125 5.171875 -4.28125 5.15625 -4.203125 C 4.640625 -3.265625 4.234375 -2.265625 3.84375 -1.265625 C 3.828125 -1.578125 3.8125 -2.328125 3.4375 -3.296875 C 3.1875 -3.90625 2.796875 -4.390625 2.109375 -4.390625 C 0.875 -4.390625 0.171875 -2.875 0.171875 -2.5625 C 0.171875 -2.46875 0.265625 -2.46875 0.359375 -2.46875 Z M 0.40625 -2.515625 "/>
</g>
<g id="glyph-5-0">
<path d="M 5.171875 -1.578125 C 5.28125 -1.578125 5.453125 -1.578125 5.453125 -1.734375 C 5.453125 -1.90625 5.296875 -1.90625 5.171875 -1.90625 L 1.03125 -1.90625 C 0.921875 -1.90625 0.75 -1.90625 0.75 -1.75 C 0.75 -1.578125 0.90625 -1.578125 1.03125 -1.578125 Z M 5.171875 -1.578125 "/>
</g>
<g id="glyph-6-0">
<path d="M 3.21875 -1.578125 L 5.34375 -1.578125 C 5.4375 -1.578125 5.609375 -1.578125 5.609375 -1.734375 C 5.609375 -1.90625 5.4375 -1.90625 5.34375 -1.90625 L 3.21875 -1.90625 L 3.21875 -4.046875 C 3.21875 -4.140625 3.21875 -4.296875 3.046875 -4.296875 C 2.875 -4.296875 2.875 -4.140625 2.875 -4.046875 L 2.875 -1.90625 L 0.75 -1.90625 C 0.65625 -1.90625 0.484375 -1.90625 0.484375 -1.75 C 0.484375 -1.578125 0.640625 -1.578125 0.75 -1.578125 L 2.875 -1.578125 L 2.875 0.5625 C 2.875 0.65625 2.875 0.828125 3.046875 0.828125 C 3.21875 0.828125 3.21875 0.65625 3.21875 0.5625 Z M 3.21875 -1.578125 "/>
</g>
<g id="glyph-7-0">
<path d="M 6.53125 -2.28125 C 6.703125 -2.28125 6.890625 -2.28125 6.890625 -2.484375 C 6.890625 -2.671875 6.703125 -2.671875 6.53125 -2.671875 L 1.171875 -2.671875 C 1 -2.671875 0.828125 -2.671875 0.828125 -2.484375 C 0.828125 -2.28125 1 -2.28125 1.171875 -2.28125 Z M 6.53125 -2.28125 "/>
</g>
<g id="glyph-8-0">
<path d="M 3.765625 2.234375 C 3.46875 1.96875 2.828125 1.359375 2.40625 0.09375 C 2.15625 -0.6875 2.03125 -1.609375 2.03125 -2.484375 C 2.03125 -4.4375 2.546875 -6 3.625 -7.09375 C 3.78125 -7.25 3.796875 -7.25 3.796875 -7.296875 C 3.796875 -7.40625 3.6875 -7.4375 3.609375 -7.4375 C 3.4375 -7.4375 3.03125 -7.078125 2.84375 -6.90625 C 1.296875 -5.375 1.078125 -3.546875 1.078125 -2.484375 C 1.078125 -1.25 1.40625 -0.15625 1.859375 0.671875 C 2.515625 1.8125 3.421875 2.46875 3.609375 2.46875 C 3.6875 2.46875 3.796875 2.4375 3.796875 2.328125 C 3.796875 2.28125 3.765625 2.25 3.765625 2.234375 Z M 3.765625 2.234375 "/>
</g>
<g id="glyph-8-1">
<path d="M 3.703125 -0.765625 C 3.703125 -0.453125 3.703125 0 4.75 0 L 5.21875 0 C 5.421875 0 5.53125 0 5.53125 -0.234375 C 5.53125 -0.46875 5.40625 -0.46875 5.28125 -0.46875 C 4.671875 -0.46875 4.671875 -0.609375 4.671875 -0.828125 L 4.671875 -2.96875 C 4.671875 -3.84375 3.96875 -4.5 2.484375 -4.5 C 1.921875 -4.5 0.71875 -4.453125 0.71875 -3.578125 C 0.71875 -3.140625 1.0625 -2.953125 1.328125 -2.953125 C 1.640625 -2.953125 1.953125 -3.171875 1.953125 -3.578125 C 1.953125 -3.875 1.765625 -4.046875 1.734375 -4.0625 C 2.015625 -4.125 2.328125 -4.140625 2.453125 -4.140625 C 3.1875 -4.140625 3.546875 -3.71875 3.546875 -2.96875 L 3.546875 -2.625 C 2.84375 -2.59375 0.3125 -2.515625 0.3125 -1.078125 C 0.3125 -0.125 1.546875 0.0625 2.234375 0.0625 C 3.03125 0.0625 3.5 -0.34375 3.703125 -0.765625 Z M 3.546875 -2.328125 L 3.546875 -1.375 C 3.546875 -0.421875 2.625 -0.296875 2.375 -0.296875 C 1.875 -0.296875 1.484375 -0.640625 1.484375 -1.078125 C 1.484375 -2.15625 3.046875 -2.296875 3.546875 -2.328125 Z M 3.546875 -2.328125 "/>
</g>
<g id="glyph-8-2">
<path d="M 3.359375 -2.484375 C 3.359375 -3.71875 3.03125 -4.8125 2.5625 -5.640625 C 1.90625 -6.78125 1 -7.4375 0.8125 -7.4375 C 0.734375 -7.4375 0.640625 -7.40625 0.640625 -7.296875 C 0.640625 -7.25 0.640625 -7.234375 0.796875 -7.078125 C 2.046875 -5.796875 2.390625 -4.046875 2.390625 -2.484375 C 2.390625 -0.53125 1.890625 1.015625 0.796875 2.125 C 0.640625 2.265625 0.640625 2.28125 0.640625 2.328125 C 0.640625 2.4375 0.734375 2.46875 0.8125 2.46875 C 0.984375 2.46875 1.40625 2.109375 1.578125 1.9375 C 3.125 0.390625 3.359375 -1.421875 3.359375 -2.484375 Z M 3.359375 -2.484375 "/>
</g>
<g id="glyph-8-3">
<path d="M 2.125 -3.984375 L 2.125 -6.890625 L 0.359375 -6.8125 L 0.359375 -6.34375 C 0.984375 -6.34375 1.046875 -6.34375 1.046875 -5.953125 L 1.046875 0 L 1.515625 0 L 2 -0.5625 C 2.078125 -0.46875 2.5625 0.0625 3.453125 0.0625 C 4.9375 0.0625 5.953125 -0.828125 5.953125 -2.21875 C 5.953125 -3.53125 5.015625 -4.46875 3.578125 -4.46875 C 2.859375 -4.46875 2.359375 -4.171875 2.125 -3.984375 Z M 2.1875 -0.984375 L 2.1875 -3.46875 C 2.453125 -3.8125 2.921875 -4.109375 3.46875 -4.109375 C 4.6875 -4.109375 4.6875 -2.90625 4.6875 -2.21875 C 4.6875 -1.75 4.6875 -1.203125 4.421875 -0.8125 C 4.140625 -0.40625 3.6875 -0.296875 3.359375 -0.296875 C 2.671875 -0.296875 2.28125 -0.828125 2.1875 -0.984375 Z M 2.1875 -0.984375 "/>
</g>
<g id="glyph-9-0">
<path d="M 5.53125 -6.640625 C 5.53125 -6.671875 5.5625 -6.75 5.5625 -6.765625 C 5.5625 -6.859375 5.5 -6.890625 5.421875 -6.890625 C 5.390625 -6.890625 5.28125 -6.875 5.265625 -6.859375 L 4.28125 -6.78125 C 4.15625 -6.78125 4.046875 -6.765625 4.046875 -6.578125 C 4.046875 -6.46875 4.140625 -6.46875 4.28125 -6.46875 C 4.765625 -6.46875 4.78125 -6.40625 4.78125 -6.296875 C 4.78125 -6.265625 4.75 -6.140625 4.75 -6.125 L 4.171875 -3.8125 C 4.03125 -4.125 3.765625 -4.390625 3.34375 -4.390625 C 2.25 -4.390625 1.078125 -2.875 1.078125 -1.421875 C 1.078125 -0.578125 1.53125 0.109375 2.265625 0.109375 C 2.625 0.109375 3.0625 -0.09375 3.46875 -0.578125 C 3.578125 -0.09375 3.9375 0.109375 4.28125 0.109375 C 4.65625 0.109375 4.859375 -0.140625 5.015625 -0.453125 C 5.1875 -0.828125 5.3125 -1.40625 5.3125 -1.421875 C 5.3125 -1.515625 5.234375 -1.515625 5.15625 -1.515625 C 5.046875 -1.515625 5.03125 -1.515625 4.96875 -1.296875 C 4.828125 -0.734375 4.640625 -0.109375 4.3125 -0.109375 C 4.046875 -0.109375 4.046875 -0.375 4.046875 -0.515625 C 4.046875 -0.578125 4.046875 -0.734375 4.109375 -0.96875 Z M 3.515625 -1.203125 C 3.4375 -0.90625 2.84375 -0.109375 2.296875 -0.109375 C 1.828125 -0.109375 1.75 -0.6875 1.75 -0.984375 C 1.75 -1.484375 2.046875 -2.65625 2.234375 -3.0625 C 2.484375 -3.671875 2.9375 -4.171875 3.34375 -4.171875 C 3.421875 -4.171875 3.65625 -4.15625 3.828125 -3.875 C 3.921875 -3.71875 4.03125 -3.4375 4.03125 -3.25 C 4.03125 -3.21875 4.015625 -3.171875 4 -3.109375 Z M 3.515625 -1.203125 "/>
</g>
<g id="glyph-9-1">
<path d="M 3.28125 -1.421875 C 3.28125 -1.515625 3.203125 -1.515625 3.140625 -1.515625 C 3 -1.515625 3 -1.5 2.96875 -1.34375 C 2.890625 -1.0625 2.625 -0.109375 2.046875 -0.109375 C 1.96875 -0.109375 1.828125 -0.125 1.828125 -0.390625 C 1.828125 -0.640625 1.953125 -0.96875 2.078125 -1.34375 L 2.71875 -3.03125 C 2.8125 -3.328125 2.84375 -3.40625 2.84375 -3.59375 C 2.84375 -4.140625 2.453125 -4.390625 2.09375 -4.390625 C 1.15625 -4.390625 0.828125 -2.90625 0.828125 -2.859375 C 0.828125 -2.765625 0.921875 -2.765625 0.96875 -2.765625 C 1.09375 -2.765625 1.109375 -2.78125 1.15625 -2.921875 C 1.234375 -3.25 1.5 -4.171875 2.078125 -4.171875 C 2.1875 -4.171875 2.296875 -4.125 2.296875 -3.890625 C 2.296875 -3.65625 2.1875 -3.359375 2.109375 -3.171875 L 1.8125 -2.34375 C 1.6875 -2.03125 1.5625 -1.703125 1.453125 -1.375 C 1.3125 -0.984375 1.265625 -0.890625 1.265625 -0.6875 C 1.265625 -0.296875 1.515625 0.109375 2.03125 0.109375 C 2.953125 0.109375 3.28125 -1.375 3.28125 -1.421875 Z M 3.234375 -6.1875 C 3.234375 -6.421875 3.03125 -6.515625 2.890625 -6.515625 C 2.6875 -6.515625 2.421875 -6.3125 2.421875 -6.03125 C 2.421875 -5.78125 2.625 -5.703125 2.765625 -5.703125 C 2.953125 -5.703125 3.234375 -5.890625 3.234375 -6.1875 Z M 3.234375 -6.1875 "/>
</g>
<g id="glyph-9-2">
<path d="M 5.6875 -3.96875 L 6.5 -3.96875 C 6.671875 -3.96875 6.78125 -3.96875 6.78125 -4.15625 C 6.78125 -4.28125 6.671875 -4.28125 6.515625 -4.28125 L 5.75 -4.28125 C 5.921875 -5.109375 5.875 -5 6.046875 -5.828125 C 6.15625 -6.265625 6.265625 -6.78125 6.65625 -6.78125 C 6.6875 -6.78125 6.9375 -6.78125 7.109375 -6.59375 C 6.875 -6.546875 6.6875 -6.359375 6.6875 -6.109375 C 6.6875 -5.890625 6.859375 -5.796875 7.03125 -5.796875 C 7.265625 -5.796875 7.515625 -5.984375 7.515625 -6.34375 C 7.515625 -6.765625 7.078125 -7 6.65625 -7 C 6.234375 -7 5.828125 -6.703125 5.640625 -6.328125 C 5.421875 -5.921875 5.359375 -5.5625 5.109375 -4.28125 L 2.796875 -4.28125 C 3.125 -6.015625 3.21875 -6.1875 3.296875 -6.34375 C 3.359375 -6.484375 3.6875 -6.78125 4.171875 -6.78125 C 4.328125 -6.78125 4.609375 -6.75 4.796875 -6.59375 C 4.6875 -6.5625 4.40625 -6.421875 4.40625 -6.109375 C 4.40625 -5.890625 4.578125 -5.796875 4.75 -5.796875 C 5.015625 -5.796875 5.234375 -6.015625 5.234375 -6.328125 C 5.234375 -6.796875 4.71875 -7 4.171875 -7 C 2.8125 -7 2.5 -6.015625 2.359375 -5.296875 L 2.15625 -4.28125 L 1.515625 -4.28125 C 1.34375 -4.28125 1.234375 -4.28125 1.234375 -4.09375 C 1.234375 -3.96875 1.328125 -3.96875 1.484375 -3.96875 L 2.109375 -3.96875 L 1.375 -0.265625 C 1.25 0.40625 1.125 0.921875 1.078125 1.0625 C 1.015625 1.296875 0.890625 1.8125 0.53125 1.8125 C 0.515625 1.8125 0.28125 1.8125 0.15625 1.640625 C 0.453125 1.59375 0.578125 1.34375 0.578125 1.15625 C 0.578125 0.9375 0.40625 0.828125 0.25 0.828125 C 0 0.828125 -0.25 1.03125 -0.25 1.375 C -0.25 1.84375 0.1875 2.03125 0.53125 2.03125 C 1.375 2.03125 1.828125 0.734375 2.140625 -0.796875 L 2.734375 -3.96875 L 5.046875 -3.96875 L 4.375 -0.5 C 4.234375 0.234375 4.0625 0.875 3.953125 1.109375 C 3.90625 1.203125 3.546875 1.8125 3.046875 1.8125 C 2.84375 1.8125 2.65625 1.78125 2.5 1.640625 C 2.734375 1.59375 2.921875 1.40625 2.921875 1.15625 C 2.921875 0.9375 2.734375 0.828125 2.578125 0.828125 C 2.3125 0.828125 2.078125 1.046875 2.078125 1.375 C 2.078125 1.875 2.65625 2.03125 3.03125 2.03125 C 3.71875 2.03125 4.296875 1.453125 4.515625 1.046875 C 4.765625 0.5625 4.90625 0.046875 5.015625 -0.484375 Z M 5.6875 -3.96875 "/>
</g>
<g id="glyph-9-3">
<path d="M 2.375 -2.296875 C 2.671875 -2.296875 3.328125 -2.328125 3.8125 -2.515625 C 4.59375 -2.828125 4.59375 -3.46875 4.59375 -3.546875 C 4.59375 -4 4.234375 -4.390625 3.59375 -4.390625 C 2.546875 -4.390625 1.125 -3.390625 1.125 -1.625 C 1.125 -0.734375 1.609375 0.109375 2.546875 0.109375 C 3.8125 0.109375 4.640625 -0.890625 4.640625 -1.03125 C 4.640625 -1.078125 4.5625 -1.1875 4.484375 -1.1875 C 4.4375 -1.1875 4.4375 -1.1875 4.359375 -1.078125 C 3.625 -0.15625 2.734375 -0.109375 2.5625 -0.109375 C 1.921875 -0.109375 1.8125 -0.8125 1.8125 -1.203125 C 1.8125 -1.578125 1.921875 -2.03125 1.984375 -2.296875 Z M 2.046875 -2.515625 C 2.46875 -4.140625 3.5 -4.171875 3.59375 -4.171875 C 3.984375 -4.171875 4.21875 -3.90625 4.21875 -3.5625 C 4.21875 -2.515625 2.578125 -2.515625 2.25 -2.515625 Z M 2.046875 -2.515625 "/>
</g>
<g id="glyph-9-4">
<path d="M 2.5625 -2.859375 C 2.5625 -2.890625 3.015625 -4.171875 3.875 -4.171875 C 3.921875 -4.171875 4.203125 -4.171875 4.390625 -4.03125 C 4.046875 -3.921875 4.015625 -3.609375 4.015625 -3.546875 C 4.015625 -3.421875 4.109375 -3.234375 4.359375 -3.234375 C 4.546875 -3.234375 4.859375 -3.375 4.859375 -3.765625 C 4.859375 -4.28125 4.203125 -4.390625 3.875 -4.390625 C 3.1875 -4.390625 2.84375 -3.890625 2.671875 -3.671875 C 2.5625 -4.203125 2.1875 -4.390625 1.859375 -4.390625 C 1.5 -4.390625 1.296875 -4.15625 1.140625 -3.859375 C 0.953125 -3.46875 0.828125 -2.875 0.828125 -2.859375 C 0.828125 -2.765625 0.921875 -2.765625 0.96875 -2.765625 C 1.09375 -2.765625 1.109375 -2.765625 1.15625 -2.984375 C 1.34375 -3.6875 1.53125 -4.171875 1.828125 -4.171875 C 2.09375 -4.171875 2.09375 -3.875 2.09375 -3.765625 C 2.09375 -3.609375 2.0625 -3.421875 2.03125 -3.265625 L 1.28125 -0.28125 C 1.265625 -0.234375 1.25 -0.171875 1.25 -0.15625 C 1.25 -0.046875 1.328125 0.109375 1.53125 0.109375 C 1.828125 0.109375 1.890625 -0.171875 1.921875 -0.265625 Z M 2.5625 -2.859375 "/>
</g>
<g id="glyph-9-5">
<path d="M 2.28125 -1.734375 C 2.328125 -1.953125 2.390625 -2.15625 2.4375 -2.375 C 2.5625 -2.890625 2.5625 -2.890625 2.734375 -3.1875 C 2.875 -3.421875 3.328125 -4.171875 4.078125 -4.171875 C 4.515625 -4.171875 4.53125 -3.71875 4.53125 -3.515625 C 4.53125 -2.890625 4.09375 -1.71875 3.953125 -1.3125 C 3.828125 -0.984375 3.796875 -0.890625 3.796875 -0.6875 C 3.796875 -0.25 4.078125 0.109375 4.546875 0.109375 C 5.484375 0.109375 5.8125 -1.375 5.8125 -1.421875 C 5.8125 -1.515625 5.734375 -1.515625 5.671875 -1.515625 C 5.53125 -1.515625 5.53125 -1.5 5.5 -1.34375 C 5.421875 -1.078125 5.15625 -0.109375 4.578125 -0.109375 C 4.359375 -0.109375 4.359375 -0.265625 4.359375 -0.390625 C 4.359375 -0.640625 4.453125 -0.90625 4.53125 -1.140625 C 4.734375 -1.671875 5.140625 -2.78125 5.140625 -3.359375 C 5.140625 -4.171875 4.59375 -4.390625 4.109375 -4.390625 C 3.296875 -4.390625 2.8125 -3.796875 2.6875 -3.609375 C 2.625 -4.09375 2.28125 -4.390625 1.859375 -4.390625 C 1.5 -4.390625 1.296875 -4.15625 1.140625 -3.859375 C 0.953125 -3.46875 0.828125 -2.875 0.828125 -2.859375 C 0.828125 -2.765625 0.921875 -2.765625 0.96875 -2.765625 C 1.09375 -2.765625 1.109375 -2.765625 1.15625 -2.984375 C 1.34375 -3.6875 1.53125 -4.171875 1.828125 -4.171875 C 2.09375 -4.171875 2.09375 -3.875 2.09375 -3.765625 C 2.09375 -3.609375 2.0625 -3.421875 2.03125 -3.265625 L 1.28125 -0.28125 C 1.265625 -0.234375 1.25 -0.171875 1.25 -0.15625 C 1.25 -0.046875 1.328125 0.109375 1.53125 0.109375 C 1.640625 0.109375 1.8125 0.046875 1.890625 -0.15625 Z M 2.28125 -1.734375 "/>
</g>
<g id="glyph-9-6">
<path d="M 4.3125 -3.734375 C 3.8125 -3.6875 3.8125 -3.28125 3.8125 -3.25 C 3.8125 -3.09375 3.921875 -2.9375 4.15625 -2.9375 C 4.421875 -2.9375 4.65625 -3.15625 4.65625 -3.53125 C 4.65625 -4.015625 4.234375 -4.390625 3.609375 -4.390625 C 2.375 -4.390625 1.09375 -2.96875 1.09375 -1.53125 C 1.09375 -0.546875 1.671875 0.109375 2.546875 0.109375 C 3.8125 0.109375 4.640625 -0.890625 4.640625 -1.03125 C 4.640625 -1.078125 4.5625 -1.1875 4.484375 -1.1875 C 4.4375 -1.1875 4.4375 -1.1875 4.359375 -1.078125 C 3.625 -0.15625 2.734375 -0.109375 2.5625 -0.109375 C 2.03125 -0.109375 1.78125 -0.5625 1.78125 -1.125 C 1.78125 -1.65625 2.046875 -2.703125 2.3125 -3.171875 C 2.671875 -3.8125 3.171875 -4.171875 3.609375 -4.171875 C 3.71875 -4.171875 4.171875 -4.140625 4.3125 -3.734375 Z M 4.3125 -3.734375 "/>
</g>
</g>
<clipPath id="clip-0">
<path clip-rule="nonzero" d="M 242 73.457031 L 245.761719 73.457031 L 245.761719 74 L 242 74 Z M 242 73.457031 "/>
</clipPath>
<clipPath id="clip-1">
<path clip-rule="nonzero" d="M 254.152344 67.867188 C 254.152344 64.746094 251.625 62.21875 248.503906 62.21875 C 245.386719 62.21875 242.855469 64.746094 242.855469 67.867188 C 242.855469 70.988281 245.386719 73.515625 248.503906 73.515625 C 251.625 73.515625 254.152344 70.988281 254.152344 67.867188 Z M 254.152344 67.867188 "/>
</clipPath>
<clipPath id="clip-2">
<path clip-rule="nonzero" d="M 243.773438 73.457031 L 248.738281 73.457031 L 248.738281 74 L 243.773438 74 Z M 243.773438 73.457031 "/>
</clipPath>
<clipPath id="clip-3">
<path clip-rule="nonzero" d="M 254.152344 67.867188 C 254.152344 64.746094 251.625 62.21875 248.503906 62.21875 C 245.386719 62.21875 242.855469 64.746094 242.855469 67.867188 C 242.855469 70.988281 245.386719 73.515625 248.503906 73.515625 C 251.625 73.515625 254.152344 70.988281 254.152344 67.867188 Z M 254.152344 67.867188 "/>
</clipPath>
<clipPath id="clip-4">
<path clip-rule="nonzero" d="M 246.753906 73.457031 L 251.714844 73.457031 L 251.714844 74 L 246.753906 74 Z M 246.753906 73.457031 "/>
</clipPath>
<clipPath id="clip-5">
<path clip-rule="nonzero" d="M 254.152344 67.867188 C 254.152344 64.746094 251.625 62.21875 248.503906 62.21875 C 245.386719 62.21875 242.855469 64.746094 242.855469 67.867188 C 242.855469 70.988281 245.386719 73.515625 248.503906 73.515625 C 251.625 73.515625 254.152344 70.988281 254.152344 67.867188 Z M 254.152344 67.867188 "/>
</clipPath>
<clipPath id="clip-6">
<path clip-rule="nonzero" d="M 249.730469 73.457031 L 254.691406 73.457031 L 254.691406 74 L 249.730469 74 Z M 249.730469 73.457031 "/>
</clipPath>
<clipPath id="clip-7">
<path clip-rule="nonzero" d="M 254.152344 67.867188 C 254.152344 64.746094 251.625 62.21875 248.503906 62.21875 C 245.386719 62.21875 242.855469 64.746094 242.855469 67.867188 C 242.855469 70.988281 245.386719 73.515625 248.503906 73.515625 C 251.625 73.515625 254.152344 70.988281 254.152344 67.867188 Z M 254.152344 67.867188 "/>
</clipPath>
<clipPath id="clip-8">
<path clip-rule="nonzero" d="M 252.707031 73.457031 L 255 73.457031 L 255 74 L 252.707031 74 Z M 252.707031 73.457031 "/>
</clipPath>
<clipPath id="clip-9">
<path clip-rule="nonzero" d="M 254.152344 67.867188 C 254.152344 64.746094 251.625 62.21875 248.503906 62.21875 C 245.386719 62.21875 242.855469 64.746094 242.855469 67.867188 C 242.855469 70.988281 245.386719 73.515625 248.503906 73.515625 C 251.625 73.515625 254.152344 70.988281 254.152344 67.867188 Z M 254.152344 67.867188 "/>
</clipPath>
<clipPath id="clip-10">
<path clip-rule="nonzero" d="M 242 70.476562 L 245.761719 70.476562 L 245.761719 74 L 242 74 Z M 242 70.476562 "/>
</clipPath>
<clipPath id="clip-11">
<path clip-rule="nonzero" d="M 254.152344 67.867188 C 254.152344 64.746094 251.625 62.21875 248.503906 62.21875 C 245.386719 62.21875 242.855469 64.746094 242.855469 67.867188 C 242.855469 70.988281 245.386719 73.515625 248.503906 73.515625 C 251.625 73.515625 254.152344 70.988281 254.152344 67.867188 Z M 254.152344 67.867188 "/>
</clipPath>
<clipPath id="clip-12">
<path clip-rule="nonzero" d="M 243.773438 70.476562 L 248.738281 70.476562 L 248.738281 74 L 243.773438 74 Z M 243.773438 70.476562 "/>
</clipPath>
<clipPath id="clip-13">
<path clip-rule="nonzero" d="M 254.152344 67.867188 C 254.152344 64.746094 251.625 62.21875 248.503906 62.21875 C 245.386719 62.21875 242.855469 64.746094 242.855469 67.867188 C 242.855469 70.988281 245.386719 73.515625 248.503906 73.515625 C 251.625 73.515625 254.152344 70.988281 254.152344 67.867188 Z M 254.152344 67.867188 "/>
</clipPath>
<clipPath id="clip-14">
<path clip-rule="nonzero" d="M 246.753906 70.476562 L 251.714844 70.476562 L 251.714844 74 L 246.753906 74 Z M 246.753906 70.476562 "/>
</clipPath>
<clipPath id="clip-15">
<path clip-rule="nonzero" d="M 254.152344 67.867188 C 254.152344 64.746094 251.625 62.21875 248.503906 62.21875 C 245.386719 62.21875 242.855469 64.746094 242.855469 67.867188 C 242.855469 70.988281 245.386719 73.515625 248.503906 73.515625 C 251.625 73.515625 254.152344 70.988281 254.152344 67.867188 Z M 254.152344 67.867188 "/>
</clipPath>
<clipPath id="clip-16">
<path clip-rule="nonzero" d="M 249.730469 70.476562 L 254.691406 70.476562 L 254.691406 74 L 249.730469 74 Z M 249.730469 70.476562 "/>
</clipPath>
<clipPath id="clip-17">
<path clip-rule="nonzero" d="M 254.152344 67.867188 C 254.152344 64.746094 251.625 62.21875 248.503906 62.21875 C 245.386719 62.21875 242.855469 64.746094 242.855469 67.867188 C 242.855469 70.988281 245.386719 73.515625 248.503906 73.515625 C 251.625 73.515625 254.152344 70.988281 254.152344 67.867188 Z M 254.152344 67.867188 "/>
</clipPath>
<clipPath id="clip-18">
<path clip-rule="nonzero" d="M 252.707031 70.476562 L 255 70.476562 L 255 74 L 252.707031 74 Z M 252.707031 70.476562 "/>
</clipPath>
<clipPath id="clip-19">
<path clip-rule="nonzero" d="M 254.152344 67.867188 C 254.152344 64.746094 251.625 62.21875 248.503906 62.21875 C 245.386719 62.21875 242.855469 64.746094 242.855469 67.867188 C 242.855469 70.988281 245.386719 73.515625 248.503906 73.515625 C 251.625 73.515625 254.152344 70.988281 254.152344 67.867188 Z M 254.152344 67.867188 "/>
</clipPath>
<clipPath id="clip-20">
<path clip-rule="nonzero" d="M 242 67.5 L 245.761719 67.5 L 245.761719 72.460938 L 242 72.460938 Z M 242 67.5 "/>
</clipPath>
<clipPath id="clip-21">
<path clip-rule="nonzero" d="M 254.152344 67.867188 C 254.152344 64.746094 251.625 62.21875 248.503906 62.21875 C 245.386719 62.21875 242.855469 64.746094 242.855469 67.867188 C 242.855469 70.988281 245.386719 73.515625 248.503906 73.515625 C 251.625 73.515625 254.152344 70.988281 254.152344 67.867188 Z M 254.152344 67.867188 "/>
</clipPath>
<clipPath id="clip-22">
<path clip-rule="nonzero" d="M 243.773438 67.5 L 248.738281 67.5 L 248.738281 72.460938 L 243.773438 72.460938 Z M 243.773438 67.5 "/>
</clipPath>
<clipPath id="clip-23">
<path clip-rule="nonzero" d="M 254.152344 67.867188 C 254.152344 64.746094 251.625 62.21875 248.503906 62.21875 C 245.386719 62.21875 242.855469 64.746094 242.855469 67.867188 C 242.855469 70.988281 245.386719 73.515625 248.503906 73.515625 C 251.625 73.515625 254.152344 70.988281 254.152344 67.867188 Z M 254.152344 67.867188 "/>
</clipPath>
<clipPath id="clip-24">
<path clip-rule="nonzero" d="M 246.753906 67.5 L 251.714844 67.5 L 251.714844 72.460938 L 246.753906 72.460938 Z M 246.753906 67.5 "/>
</clipPath>
<clipPath id="clip-25">
<path clip-rule="nonzero" d="M 254.152344 67.867188 C 254.152344 64.746094 251.625 62.21875 248.503906 62.21875 C 245.386719 62.21875 242.855469 64.746094 242.855469 67.867188 C 242.855469 70.988281 245.386719 73.515625 248.503906 73.515625 C 251.625 73.515625 254.152344 70.988281 254.152344 67.867188 Z M 254.152344 67.867188 "/>
</clipPath>
<clipPath id="clip-26">
<path clip-rule="nonzero" d="M 249.730469 67.5 L 254.691406 67.5 L 254.691406 72.460938 L 249.730469 72.460938 Z M 249.730469 67.5 "/>
</clipPath>
<clipPath id="clip-27">
<path clip-rule="nonzero" d="M 254.152344 67.867188 C 254.152344 64.746094 251.625 62.21875 248.503906 62.21875 C 245.386719 62.21875 242.855469 64.746094 242.855469 67.867188 C 242.855469 70.988281 245.386719 73.515625 248.503906 73.515625 C 251.625 73.515625 254.152344 70.988281 254.152344 67.867188 Z M 254.152344 67.867188 "/>
</clipPath>
<clipPath id="clip-28">
<path clip-rule="nonzero" d="M 252.707031 67.5 L 255 67.5 L 255 72.460938 L 252.707031 72.460938 Z M 252.707031 67.5 "/>
</clipPath>
<clipPath id="clip-29">
<path clip-rule="nonzero" d="M 254.152344 67.867188 C 254.152344 64.746094 251.625 62.21875 248.503906 62.21875 C 245.386719 62.21875 242.855469 64.746094 242.855469 67.867188 C 242.855469 70.988281 245.386719 73.515625 248.503906 73.515625 C 251.625 73.515625 254.152344 70.988281 254.152344 67.867188 Z M 254.152344 67.867188 "/>
</clipPath>
<clipPath id="clip-30">
<path clip-rule="nonzero" d="M 242 64.523438 L 245.761719 64.523438 L 245.761719 69.484375 L 242 69.484375 Z M 242 64.523438 "/>
</clipPath>
<clipPath id="clip-31">
<path clip-rule="nonzero" d="M 254.152344 67.867188 C 254.152344 64.746094 251.625 62.21875 248.503906 62.21875 C 245.386719 62.21875 242.855469 64.746094 242.855469 67.867188 C 242.855469 70.988281 245.386719 73.515625 248.503906 73.515625 C 251.625 73.515625 254.152344 70.988281 254.152344 67.867188 Z M 254.152344 67.867188 "/>
</clipPath>
<clipPath id="clip-32">
<path clip-rule="nonzero" d="M 243.773438 64.523438 L 248.738281 64.523438 L 248.738281 69.484375 L 243.773438 69.484375 Z M 243.773438 64.523438 "/>
</clipPath>
<clipPath id="clip-33">
<path clip-rule="nonzero" d="M 254.152344 67.867188 C 254.152344 64.746094 251.625 62.21875 248.503906 62.21875 C 245.386719 62.21875 242.855469 64.746094 242.855469 67.867188 C 242.855469 70.988281 245.386719 73.515625 248.503906 73.515625 C 251.625 73.515625 254.152344 70.988281 254.152344 67.867188 Z M 254.152344 67.867188 "/>
</clipPath>
<clipPath id="clip-34">
<path clip-rule="nonzero" d="M 246.753906 64.523438 L 251.714844 64.523438 L 251.714844 69.484375 L 246.753906 69.484375 Z M 246.753906 64.523438 "/>
</clipPath>
<clipPath id="clip-35">
<path clip-rule="nonzero" d="M 254.152344 67.867188 C 254.152344 64.746094 251.625 62.21875 248.503906 62.21875 C 245.386719 62.21875 242.855469 64.746094 242.855469 67.867188 C 242.855469 70.988281 245.386719 73.515625 248.503906 73.515625 C 251.625 73.515625 254.152344 70.988281 254.152344 67.867188 Z M 254.152344 67.867188 "/>
</clipPath>
<clipPath id="clip-36">
<path clip-rule="nonzero" d="M 249.730469 64.523438 L 254.691406 64.523438 L 254.691406 69.484375 L 249.730469 69.484375 Z M 249.730469 64.523438 "/>
</clipPath>
<clipPath id="clip-37">
<path clip-rule="nonzero" d="M 254.152344 67.867188 C 254.152344 64.746094 251.625 62.21875 248.503906 62.21875 C 245.386719 62.21875 242.855469 64.746094 242.855469 67.867188 C 242.855469 70.988281 245.386719 73.515625 248.503906 73.515625 C 251.625 73.515625 254.152344 70.988281 254.152344 67.867188 Z M 254.152344 67.867188 "/>
</clipPath>
<clipPath id="clip-38">
<path clip-rule="nonzero" d="M 252.707031 64.523438 L 255 64.523438 L 255 69.484375 L 252.707031 69.484375 Z M 252.707031 64.523438 "/>
</clipPath>
<clipPath id="clip-39">
<path clip-rule="nonzero" d="M 254.152344 67.867188 C 254.152344 64.746094 251.625 62.21875 248.503906 62.21875 C 245.386719 62.21875 242.855469 64.746094 242.855469 67.867188 C 242.855469 70.988281 245.386719 73.515625 248.503906 73.515625 C 251.625 73.515625 254.152344 70.988281 254.152344 67.867188 Z M 254.152344 67.867188 "/>
</clipPath>
<clipPath id="clip-40">
<path clip-rule="nonzero" d="M 242 62 L 245.761719 62 L 245.761719 66.507812 L 242 66.507812 Z M 242 62 "/>
</clipPath>
<clipPath id="clip-41">
<path clip-rule="nonzero" d="M 254.152344 67.867188 C 254.152344 64.746094 251.625 62.21875 248.503906 62.21875 C 245.386719 62.21875 242.855469 64.746094 242.855469 67.867188 C 242.855469 70.988281 245.386719 73.515625 248.503906 73.515625 C 251.625 73.515625 254.152344 70.988281 254.152344 67.867188 Z M 254.152344 67.867188 "/>
</clipPath>
<clipPath id="clip-42">
<path clip-rule="nonzero" d="M 243.773438 62 L 248.738281 62 L 248.738281 66.507812 L 243.773438 66.507812 Z M 243.773438 62 "/>
</clipPath>
<clipPath id="clip-43">
<path clip-rule="nonzero" d="M 254.152344 67.867188 C 254.152344 64.746094 251.625 62.21875 248.503906 62.21875 C 245.386719 62.21875 242.855469 64.746094 242.855469 67.867188 C 242.855469 70.988281 245.386719 73.515625 248.503906 73.515625 C 251.625 73.515625 254.152344 70.988281 254.152344 67.867188 Z M 254.152344 67.867188 "/>
</clipPath>
<clipPath id="clip-44">
<path clip-rule="nonzero" d="M 246.753906 62 L 251.714844 62 L 251.714844 66.507812 L 246.753906 66.507812 Z M 246.753906 62 "/>
</clipPath>
<clipPath id="clip-45">
<path clip-rule="nonzero" d="M 254.152344 67.867188 C 254.152344 64.746094 251.625 62.21875 248.503906 62.21875 C 245.386719 62.21875 242.855469 64.746094 242.855469 67.867188 C 242.855469 70.988281 245.386719 73.515625 248.503906 73.515625 C 251.625 73.515625 254.152344 70.988281 254.152344 67.867188 Z M 254.152344 67.867188 "/>
</clipPath>
<clipPath id="clip-46">
<path clip-rule="nonzero" d="M 249.730469 62 L 254.691406 62 L 254.691406 66.507812 L 249.730469 66.507812 Z M 249.730469 62 "/>
</clipPath>
<clipPath id="clip-47">
<path clip-rule="nonzero" d="M 254.152344 67.867188 C 254.152344 64.746094 251.625 62.21875 248.503906 62.21875 C 245.386719 62.21875 242.855469 64.746094 242.855469 67.867188 C 242.855469 70.988281 245.386719 73.515625 248.503906 73.515625 C 251.625 73.515625 254.152344 70.988281 254.152344 67.867188 Z M 254.152344 67.867188 "/>
</clipPath>
<clipPath id="clip-48">
<path clip-rule="nonzero" d="M 252.707031 62 L 255 62 L 255 66.507812 L 252.707031 66.507812 Z M 252.707031 62 "/>
</clipPath>
<clipPath id="clip-49">
<path clip-rule="nonzero" d="M 254.152344 67.867188 C 254.152344 64.746094 251.625 62.21875 248.503906 62.21875 C 245.386719 62.21875 242.855469 64.746094 242.855469 67.867188 C 242.855469 70.988281 245.386719 73.515625 248.503906 73.515625 C 251.625 73.515625 254.152344 70.988281 254.152344 67.867188 Z M 254.152344 67.867188 "/>
</clipPath>
<clipPath id="clip-50">
<path clip-rule="nonzero" d="M 242 62 L 245.761719 62 L 245.761719 63.527344 L 242 63.527344 Z M 242 62 "/>
</clipPath>
<clipPath id="clip-51">
<path clip-rule="nonzero" d="M 254.152344 67.867188 C 254.152344 64.746094 251.625 62.21875 248.503906 62.21875 C 245.386719 62.21875 242.855469 64.746094 242.855469 67.867188 C 242.855469 70.988281 245.386719 73.515625 248.503906 73.515625 C 251.625 73.515625 254.152344 70.988281 254.152344 67.867188 Z M 254.152344 67.867188 "/>
</clipPath>
<clipPath id="clip-52">
<path clip-rule="nonzero" d="M 243.773438 62 L 248.738281 62 L 248.738281 63.527344 L 243.773438 63.527344 Z M 243.773438 62 "/>
</clipPath>
<clipPath id="clip-53">
<path clip-rule="nonzero" d="M 254.152344 67.867188 C 254.152344 64.746094 251.625 62.21875 248.503906 62.21875 C 245.386719 62.21875 242.855469 64.746094 242.855469 67.867188 C 242.855469 70.988281 245.386719 73.515625 248.503906 73.515625 C 251.625 73.515625 254.152344 70.988281 254.152344 67.867188 Z M 254.152344 67.867188 "/>
</clipPath>
<clipPath id="clip-54">
<path clip-rule="nonzero" d="M 246.753906 62 L 251.714844 62 L 251.714844 63.527344 L 246.753906 63.527344 Z M 246.753906 62 "/>
</clipPath>
<clipPath id="clip-55">
<path clip-rule="nonzero" d="M 254.152344 67.867188 C 254.152344 64.746094 251.625 62.21875 248.503906 62.21875 C 245.386719 62.21875 242.855469 64.746094 242.855469 67.867188 C 242.855469 70.988281 245.386719 73.515625 248.503906 73.515625 C 251.625 73.515625 254.152344 70.988281 254.152344 67.867188 Z M 254.152344 67.867188 "/>
</clipPath>
<clipPath id="clip-56">
<path clip-rule="nonzero" d="M 249.730469 62 L 254.691406 62 L 254.691406 63.527344 L 249.730469 63.527344 Z M 249.730469 62 "/>
</clipPath>
<clipPath id="clip-57">
<path clip-rule="nonzero" d="M 254.152344 67.867188 C 254.152344 64.746094 251.625 62.21875 248.503906 62.21875 C 245.386719 62.21875 242.855469 64.746094 242.855469 67.867188 C 242.855469 70.988281 245.386719 73.515625 248.503906 73.515625 C 251.625 73.515625 254.152344 70.988281 254.152344 67.867188 Z M 254.152344 67.867188 "/>
</clipPath>
<clipPath id="clip-58">
<path clip-rule="nonzero" d="M 252.707031 62 L 255 62 L 255 63.527344 L 252.707031 63.527344 Z M 252.707031 62 "/>
</clipPath>
<clipPath id="clip-59">
<path clip-rule="nonzero" d="M 254.152344 67.867188 C 254.152344 64.746094 251.625 62.21875 248.503906 62.21875 C 245.386719 62.21875 242.855469 64.746094 242.855469 67.867188 C 242.855469 70.988281 245.386719 73.515625 248.503906 73.515625 C 251.625 73.515625 254.152344 70.988281 254.152344 67.867188 Z M 254.152344 67.867188 "/>
</clipPath>
</defs>
<path fill-rule="nonzero" fill="rgb(89.239502%, 92.422485%, 95.608521%)" fill-opacity="1" d="M 90.351562 45.273438 C 90.351562 28.894531 77.074219 15.621094 60.695312 15.621094 C 44.316406 15.621094 31.042969 28.894531 31.042969 45.273438 C 31.042969 61.652344 44.316406 74.925781 60.695312 74.925781 C 77.074219 74.925781 90.351562 61.652344 90.351562 45.273438 Z M 90.351562 45.273438 "/>
<path fill-rule="nonzero" fill="rgb(89.239502%, 92.422485%, 95.608521%)" fill-opacity="1" d="M 149.65625 45.273438 C 149.65625 28.894531 136.382812 15.621094 120.003906 15.621094 C 103.625 15.621094 90.351562 28.894531 90.351562 45.273438 C 90.351562 61.652344 103.625 74.925781 120.003906 74.925781 C 136.382812 74.925781 149.65625 61.652344 149.65625 45.273438 Z M 149.65625 45.273438 "/>
<path fill="none" stroke-width="1.19553" stroke-linecap="butt" stroke-linejoin="miter" stroke="rgb(69.018555%, 18.824768%, 18.824768%)" stroke-opacity="1" stroke-miterlimit="10" d="M 0.00176312 35.433429 C 0.00176312 51.873162 -13.324889 65.195894 -29.764623 65.195894 C -46.204356 65.195894 -59.527087 51.873162 -59.527087 35.433429 C -59.527087 18.993695 -46.204356 5.670964 -29.764623 5.670964 C -13.324889 5.670964 0.00176312 18.993695 0.00176312 35.433429 Z M 0.00176312 35.433429 " transform="matrix(0.9963, 0, 0, -0.9963, 90.349806, 80.575762)"/>
<path fill="none" stroke-width="1.19553" stroke-linecap="butt" stroke-linejoin="miter" stroke="rgb(69.018555%, 18.824768%, 18.824768%)" stroke-opacity="1" stroke-miterlimit="10" d="M 59.526693 35.433429 C 59.526693 51.873162 46.203961 65.195894 29.764228 65.195894 C 13.324495 65.195894 0.00176312 51.873162 0.00176312 35.433429 C 0.00176312 18.993695 13.324495 5.670964 29.764228 5.670964 C 46.203961 5.670964 59.526693 18.993695 59.526693 35.433429 Z M 59.526693 35.433429 " transform="matrix(0.9963, 0, 0, -0.9963, 90.349806, 80.575762)"/>
<path fill-rule="nonzero" fill="rgb(69.018555%, 18.824768%, 18.824768%)" fill-opacity="1" d="M 92.039062 45.273438 C 92.039062 44.339844 91.28125 43.585938 90.351562 43.585938 C 89.417969 43.585938 88.664062 44.339844 88.664062 45.273438 C 88.664062 46.207031 89.417969 46.960938 90.351562 46.960938 C 91.28125 46.960938 92.039062 46.207031 92.039062 45.273438 Z M 92.039062 45.273438 "/>
<path fill="none" stroke-width="0.3985" stroke-linecap="butt" stroke-linejoin="miter" stroke="rgb(81.411743%, 51.293945%, 51.293945%)" stroke-opacity="1" stroke-miterlimit="10" d="M 0.00176312 35.433429 L 0.00176312 11.904967 " transform="matrix(0.9963, 0, 0, -0.9963, 90.349806, 80.575762)"/>
<g fill="rgb(69.018555%, 18.824768%, 18.824768%)" fill-opacity="1">
<use xlink:href="#glyph-0-0" x="86.781059" y="76.505877"/>
</g>
<g fill="rgb(69.018555%, 18.824768%, 18.824768%)" fill-opacity="1">
<use xlink:href="#glyph-0-1" x="55.292001" y="10.983211"/>
</g>
<g fill="rgb(69.018555%, 18.824768%, 18.824768%)" fill-opacity="1">
<use xlink:href="#glyph-1-0" x="60.034389" y="11.975526"/>
</g>
<g fill="rgb(69.018555%, 18.824768%, 18.824768%)" fill-opacity="1">
<use xlink:href="#glyph-0-1" x="114.517055" y="10.983211"/>
</g>
<g fill="rgb(69.018555%, 18.824768%, 18.824768%)" fill-opacity="1">
<use xlink:href="#glyph-2-0" x="119.258447" y="11.975526"/>
</g>
<g fill="rgb(23.136902%, 45.881653%, 68.624878%)" fill-opacity="1">
<use xlink:href="#glyph-3-0" x="58.214149" y="48.471988"/>
</g>
<g fill="rgb(23.136902%, 45.881653%, 68.624878%)" fill-opacity="1">
<use xlink:href="#glyph-3-0" x="117.521896" y="48.471988"/>
</g>
<g fill="rgb(25%, 25%, 25%)" fill-opacity="1">
<use xlink:href="#glyph-3-1" x="22.484839" y="106.526389"/>
<use xlink:href="#glyph-3-2" x="27.447708" y="106.526389"/>
<use xlink:href="#glyph-3-3" x="31.33562" y="106.526389"/>
<use xlink:href="#glyph-3-1" x="35.746618" y="106.526389"/>
<use xlink:href="#glyph-3-4" x="40.709487" y="106.526389"/>
</g>
<g fill="rgb(25%, 25%, 25%)" fill-opacity="1">
<use xlink:href="#glyph-4-0" x="44.569821" y="106.526389"/>
</g>
<g fill="rgb(25%, 25%, 25%)" fill-opacity="1">
<use xlink:href="#glyph-3-5" x="52.428635" y="106.526389"/>
</g>
<g fill="rgb(25%, 25%, 25%)" fill-opacity="1">
<use xlink:href="#glyph-3-6" x="59.04811" y="106.526389"/>
</g>
<g fill="rgb(25%, 25%, 25%)" fill-opacity="1">
<use xlink:href="#glyph-3-1" x="69.527705" y="106.526389"/>
<use xlink:href="#glyph-3-2" x="74.490574" y="106.526389"/>
<use xlink:href="#glyph-3-3" x="78.378486" y="106.526389"/>
<use xlink:href="#glyph-3-1" x="82.789484" y="106.526389"/>
<use xlink:href="#glyph-3-4" x="87.752353" y="106.526389"/>
</g>
<g fill="rgb(25%, 25%, 25%)" fill-opacity="1">
<use xlink:href="#glyph-4-1" x="91.608133" y="106.526389"/>
</g>
<g fill="rgb(25%, 25%, 25%)" fill-opacity="1">
<use xlink:href="#glyph-5-0" x="96.747048" y="108.015857"/>
</g>
<g fill="rgb(25%, 25%, 25%)" fill-opacity="1">
<use xlink:href="#glyph-3-5" x="103.447166" y="106.526389"/>
</g>
<g fill="rgb(25%, 25%, 25%)" fill-opacity="1">
<use xlink:href="#glyph-3-6" x="110.066641" y="106.526389"/>
</g>
<g fill="rgb(25%, 25%, 25%)" fill-opacity="1">
<use xlink:href="#glyph-3-1" x="120.536309" y="106.526389"/>
<use xlink:href="#glyph-3-2" x="125.499179" y="106.526389"/>
<use xlink:href="#glyph-3-3" x="129.38709" y="106.526389"/>
</g>
<g fill="rgb(25%, 25%, 25%)" fill-opacity="1">
<use xlink:href="#glyph-3-1" x="133.808014" y="106.526389"/>
<use xlink:href="#glyph-3-4" x="138.770883" y="106.526389"/>
</g>
<g fill="rgb(25%, 25%, 25%)" fill-opacity="1">
<use xlink:href="#glyph-4-1" x="142.625667" y="106.526389"/>
</g>
<g fill="rgb(25%, 25%, 25%)" fill-opacity="1">
<use xlink:href="#glyph-6-0" x="147.764582" y="108.015857"/>
</g>
<g fill="rgb(25%, 25%, 25%)" fill-opacity="1">
<use xlink:href="#glyph-3-5" x="154.35411" y="106.526389"/>
</g>
<path fill-rule="evenodd" fill="rgb(89.239502%, 92.422485%, 95.608521%)" fill-opacity="1" d="M 283.808594 45.273438 C 283.808594 25.777344 268.003906 9.972656 248.503906 9.972656 C 229.007812 9.972656 213.203125 25.777344 213.203125 45.273438 C 213.203125 64.769531 229.007812 80.574219 248.503906 80.574219 C 268.003906 80.574219 283.808594 64.769531 283.808594 45.273438 Z M 261.214844 67.867188 C 261.214844 60.847656 255.523438 55.160156 248.503906 55.160156 C 241.484375 55.160156 235.796875 60.847656 235.796875 67.867188 C 235.796875 74.886719 241.484375 80.574219 248.503906 80.574219 C 255.523438 80.574219 261.214844 74.886719 261.214844 67.867188 Z M 261.214844 67.867188 "/>
<g clip-path="url(#clip-0)">
<g clip-path="url(#clip-1)">
<path fill="none" stroke-width="0.3985" stroke-linecap="butt" stroke-linejoin="miter" stroke="rgb(64.99939%, 64.99939%, 64.99939%)" stroke-opacity="1" stroke-miterlimit="10" d="M -0.000567248 -0.000240536 L 3.088989 3.089316 " transform="matrix(0.9963, 0, 0, -0.9963, 241.789628, 77.425542)"/>
</g>
</g>
<g clip-path="url(#clip-2)">
<g clip-path="url(#clip-3)">
<path fill="none" stroke-width="0.3985" stroke-linecap="butt" stroke-linejoin="miter" stroke="rgb(64.99939%, 64.99939%, 64.99939%)" stroke-opacity="1" stroke-miterlimit="10" d="M -0.00178057 -0.000240536 L 3.087776 3.089316 " transform="matrix(0.9963, 0, 0, -0.9963, 244.767399, 77.425542)"/>
</g>
</g>
<g clip-path="url(#clip-4)">
<g clip-path="url(#clip-5)">
<path fill="none" stroke-width="0.3985" stroke-linecap="butt" stroke-linejoin="miter" stroke="rgb(64.99939%, 64.99939%, 64.99939%)" stroke-opacity="1" stroke-miterlimit="10" d="M 0.000926872 -0.000240536 L 3.086562 3.089316 " transform="matrix(0.9963, 0, 0, -0.9963, 247.74517, 77.425542)"/>
</g>
</g>
<g clip-path="url(#clip-6)">
<g clip-path="url(#clip-7)">
<path fill="none" stroke-width="0.3985" stroke-linecap="butt" stroke-linejoin="miter" stroke="rgb(64.99939%, 64.99939%, 64.99939%)" stroke-opacity="1" stroke-miterlimit="10" d="M -0.000286446 -0.000240536 L 3.08927 3.089316 " transform="matrix(0.9963, 0, 0, -0.9963, 250.722942, 77.425542)"/>
</g>
</g>
<g clip-path="url(#clip-8)">
<g clip-path="url(#clip-9)">
<path fill="none" stroke-width="0.3985" stroke-linecap="butt" stroke-linejoin="miter" stroke="rgb(64.99939%, 64.99939%, 64.99939%)" stroke-opacity="1" stroke-miterlimit="10" d="M -0.00149976 -0.000240536 L 3.088057 3.089316 " transform="matrix(0.9963, 0, 0, -0.9963, 253.700713, 77.425542)"/>
</g>
</g>
<g clip-path="url(#clip-10)">
<g clip-path="url(#clip-11)">
<path fill="none" stroke-width="0.3985" stroke-linecap="butt" stroke-linejoin="miter" stroke="rgb(64.99939%, 64.99939%, 64.99939%)" stroke-opacity="1" stroke-miterlimit="10" d="M -0.000567248 -0.00145385 L 3.088989 3.088103 " transform="matrix(0.9963, 0, 0, -0.9963, 241.789628, 74.44777)"/>
</g>
</g>
<g clip-path="url(#clip-12)">
<g clip-path="url(#clip-13)">
<path fill="none" stroke-width="0.3985" stroke-linecap="butt" stroke-linejoin="miter" stroke="rgb(64.99939%, 64.99939%, 64.99939%)" stroke-opacity="1" stroke-miterlimit="10" d="M -0.00178057 -0.00145385 L 3.087776 3.088103 " transform="matrix(0.9963, 0, 0, -0.9963, 244.767399, 74.44777)"/>
</g>
</g>
<g clip-path="url(#clip-14)">
<g clip-path="url(#clip-15)">
<path fill="none" stroke-width="0.3985" stroke-linecap="butt" stroke-linejoin="miter" stroke="rgb(64.99939%, 64.99939%, 64.99939%)" stroke-opacity="1" stroke-miterlimit="10" d="M 0.000926872 -0.00145385 L 3.086562 3.088103 " transform="matrix(0.9963, 0, 0, -0.9963, 247.74517, 74.44777)"/>
</g>
</g>
<g clip-path="url(#clip-16)">
<g clip-path="url(#clip-17)">
<path fill="none" stroke-width="0.3985" stroke-linecap="butt" stroke-linejoin="miter" stroke="rgb(64.99939%, 64.99939%, 64.99939%)" stroke-opacity="1" stroke-miterlimit="10" d="M -0.000286446 -0.00145385 L 3.08927 3.088103 " transform="matrix(0.9963, 0, 0, -0.9963, 250.722942, 74.44777)"/>
</g>
</g>
<g clip-path="url(#clip-18)">
<g clip-path="url(#clip-19)">
<path fill="none" stroke-width="0.3985" stroke-linecap="butt" stroke-linejoin="miter" stroke="rgb(64.99939%, 64.99939%, 64.99939%)" stroke-opacity="1" stroke-miterlimit="10" d="M -0.00149976 -0.00145385 L 3.088057 3.088103 " transform="matrix(0.9963, 0, 0, -0.9963, 253.700713, 74.44777)"/>
</g>
</g>
<g clip-path="url(#clip-20)">
<g clip-path="url(#clip-21)">
<path fill="none" stroke-width="0.3985" stroke-linecap="butt" stroke-linejoin="miter" stroke="rgb(64.99939%, 64.99939%, 64.99939%)" stroke-opacity="1" stroke-miterlimit="10" d="M -0.000567248 0.00125358 L 3.088989 3.086889 " transform="matrix(0.9963, 0, 0, -0.9963, 241.789628, 71.469999)"/>
</g>
</g>
<g clip-path="url(#clip-22)">
<g clip-path="url(#clip-23)">
<path fill="none" stroke-width="0.3985" stroke-linecap="butt" stroke-linejoin="miter" stroke="rgb(64.99939%, 64.99939%, 64.99939%)" stroke-opacity="1" stroke-miterlimit="10" d="M -0.00178057 0.00125358 L 3.087776 3.086889 " transform="matrix(0.9963, 0, 0, -0.9963, 244.767399, 71.469999)"/>
</g>
</g>
<g clip-path="url(#clip-24)">
<g clip-path="url(#clip-25)">
<path fill="none" stroke-width="0.3985" stroke-linecap="butt" stroke-linejoin="miter" stroke="rgb(64.99939%, 64.99939%, 64.99939%)" stroke-opacity="1" stroke-miterlimit="10" d="M 0.000926872 0.00125358 L 3.086562 3.086889 " transform="matrix(0.9963, 0, 0, -0.9963, 247.74517, 71.469999)"/>
</g>
</g>
<g clip-path="url(#clip-26)">
<g clip-path="url(#clip-27)">
<path fill="none" stroke-width="0.3985" stroke-linecap="butt" stroke-linejoin="miter" stroke="rgb(64.99939%, 64.99939%, 64.99939%)" stroke-opacity="1" stroke-miterlimit="10" d="M -0.000286446 0.00125358 L 3.08927 3.086889 " transform="matrix(0.9963, 0, 0, -0.9963, 250.722942, 71.469999)"/>
</g>
</g>
<g clip-path="url(#clip-28)">
<g clip-path="url(#clip-29)">
<path fill="none" stroke-width="0.3985" stroke-linecap="butt" stroke-linejoin="miter" stroke="rgb(64.99939%, 64.99939%, 64.99939%)" stroke-opacity="1" stroke-miterlimit="10" d="M -0.00149976 0.00125358 L 3.088057 3.086889 " transform="matrix(0.9963, 0, 0, -0.9963, 253.700713, 71.469999)"/>
</g>
</g>
<g clip-path="url(#clip-30)">
<g clip-path="url(#clip-31)">
<path fill="none" stroke-width="0.3985" stroke-linecap="butt" stroke-linejoin="miter" stroke="rgb(64.99939%, 64.99939%, 64.99939%)" stroke-opacity="1" stroke-miterlimit="10" d="M -0.000567248 0.000040266 L 3.088989 3.089597 " transform="matrix(0.9963, 0, 0, -0.9963, 241.789628, 68.492228)"/>
</g>
</g>
<g clip-path="url(#clip-32)">
<g clip-path="url(#clip-33)">
<path fill="none" stroke-width="0.3985" stroke-linecap="butt" stroke-linejoin="miter" stroke="rgb(64.99939%, 64.99939%, 64.99939%)" stroke-opacity="1" stroke-miterlimit="10" d="M -0.00178057 0.000040266 L 3.087776 3.089597 " transform="matrix(0.9963, 0, 0, -0.9963, 244.767399, 68.492228)"/>
</g>
</g>
<g clip-path="url(#clip-34)">
<g clip-path="url(#clip-35)">
<path fill="none" stroke-width="0.3985" stroke-linecap="butt" stroke-linejoin="miter" stroke="rgb(64.99939%, 64.99939%, 64.99939%)" stroke-opacity="1" stroke-miterlimit="10" d="M 0.000926872 0.000040266 L 3.086562 3.089597 " transform="matrix(0.9963, 0, 0, -0.9963, 247.74517, 68.492228)"/>
</g>
</g>
<g clip-path="url(#clip-36)">
<g clip-path="url(#clip-37)">
<path fill="none" stroke-width="0.3985" stroke-linecap="butt" stroke-linejoin="miter" stroke="rgb(64.99939%, 64.99939%, 64.99939%)" stroke-opacity="1" stroke-miterlimit="10" d="M -0.000286446 0.000040266 L 3.08927 3.089597 " transform="matrix(0.9963, 0, 0, -0.9963, 250.722942, 68.492228)"/>
</g>
</g>
<g clip-path="url(#clip-38)">
<g clip-path="url(#clip-39)">
<path fill="none" stroke-width="0.3985" stroke-linecap="butt" stroke-linejoin="miter" stroke="rgb(64.99939%, 64.99939%, 64.99939%)" stroke-opacity="1" stroke-miterlimit="10" d="M -0.00149976 0.000040266 L 3.088057 3.089597 " transform="matrix(0.9963, 0, 0, -0.9963, 253.700713, 68.492228)"/>
</g>
</g>
<g clip-path="url(#clip-40)">
<g clip-path="url(#clip-41)">
<path fill="none" stroke-width="0.3985" stroke-linecap="butt" stroke-linejoin="miter" stroke="rgb(64.99939%, 64.99939%, 64.99939%)" stroke-opacity="1" stroke-miterlimit="10" d="M -0.000567248 -0.00117305 L 3.088989 3.088383 " transform="matrix(0.9963, 0, 0, -0.9963, 241.789628, 65.514456)"/>
</g>
</g>
<g clip-path="url(#clip-42)">
<g clip-path="url(#clip-43)">
<path fill="none" stroke-width="0.3985" stroke-linecap="butt" stroke-linejoin="miter" stroke="rgb(64.99939%, 64.99939%, 64.99939%)" stroke-opacity="1" stroke-miterlimit="10" d="M -0.00178057 -0.00117305 L 3.087776 3.088383 " transform="matrix(0.9963, 0, 0, -0.9963, 244.767399, 65.514456)"/>
</g>
</g>
<g clip-path="url(#clip-44)">
<g clip-path="url(#clip-45)">
<path fill="none" stroke-width="0.3985" stroke-linecap="butt" stroke-linejoin="miter" stroke="rgb(64.99939%, 64.99939%, 64.99939%)" stroke-opacity="1" stroke-miterlimit="10" d="M 0.000926872 -0.00117305 L 3.086562 3.088383 " transform="matrix(0.9963, 0, 0, -0.9963, 247.74517, 65.514456)"/>
</g>
</g>
<g clip-path="url(#clip-46)">
<g clip-path="url(#clip-47)">
<path fill="none" stroke-width="0.3985" stroke-linecap="butt" stroke-linejoin="miter" stroke="rgb(64.99939%, 64.99939%, 64.99939%)" stroke-opacity="1" stroke-miterlimit="10" d="M -0.000286446 -0.00117305 L 3.08927 3.088383 " transform="matrix(0.9963, 0, 0, -0.9963, 250.722942, 65.514456)"/>
</g>
</g>
<g clip-path="url(#clip-48)">
<g clip-path="url(#clip-49)">
<path fill="none" stroke-width="0.3985" stroke-linecap="butt" stroke-linejoin="miter" stroke="rgb(64.99939%, 64.99939%, 64.99939%)" stroke-opacity="1" stroke-miterlimit="10" d="M -0.00149976 -0.00117305 L 3.088057 3.088383 " transform="matrix(0.9963, 0, 0, -0.9963, 253.700713, 65.514456)"/>
</g>
</g>
<g clip-path="url(#clip-50)">
<g clip-path="url(#clip-51)">
<path fill="none" stroke-width="0.3985" stroke-linecap="butt" stroke-linejoin="miter" stroke="rgb(64.99939%, 64.99939%, 64.99939%)" stroke-opacity="1" stroke-miterlimit="10" d="M -0.000567248 0.00153439 L 3.088989 3.08717 " transform="matrix(0.9963, 0, 0, -0.9963, 241.789628, 62.536685)"/>
</g>
</g>
<g clip-path="url(#clip-52)">
<g clip-path="url(#clip-53)">
<path fill="none" stroke-width="0.3985" stroke-linecap="butt" stroke-linejoin="miter" stroke="rgb(64.99939%, 64.99939%, 64.99939%)" stroke-opacity="1" stroke-miterlimit="10" d="M -0.00178057 0.00153439 L 3.087776 3.08717 " transform="matrix(0.9963, 0, 0, -0.9963, 244.767399, 62.536685)"/>
</g>
</g>
<g clip-path="url(#clip-54)">
<g clip-path="url(#clip-55)">
<path fill="none" stroke-width="0.3985" stroke-linecap="butt" stroke-linejoin="miter" stroke="rgb(64.99939%, 64.99939%, 64.99939%)" stroke-opacity="1" stroke-miterlimit="10" d="M 0.000926872 0.00153439 L 3.086562 3.08717 " transform="matrix(0.9963, 0, 0, -0.9963, 247.74517, 62.536685)"/>
</g>
</g>
<g clip-path="url(#clip-56)">
<g clip-path="url(#clip-57)">
<path fill="none" stroke-width="0.3985" stroke-linecap="butt" stroke-linejoin="miter" stroke="rgb(64.99939%, 64.99939%, 64.99939%)" stroke-opacity="1" stroke-miterlimit="10" d="M -0.000286446 0.00153439 L 3.08927 3.08717 " transform="matrix(0.9963, 0, 0, -0.9963, 250.722942, 62.536685)"/>
</g>
</g>
<g clip-path="url(#clip-58)">
<g clip-path="url(#clip-59)">
<path fill="none" stroke-width="0.3985" stroke-linecap="butt" stroke-linejoin="miter" stroke="rgb(64.99939%, 64.99939%, 64.99939%)" stroke-opacity="1" stroke-miterlimit="10" d="M -0.00149976 0.00153439 L 3.088057 3.08717 " transform="matrix(0.9963, 0, 0, -0.9963, 253.700713, 62.536685)"/>
</g>
</g>
<path fill="none" stroke-width="0.3985" stroke-linecap="butt" stroke-linejoin="miter" stroke="rgb(54.998779%, 54.998779%, 54.998779%)" stroke-opacity="1" stroke-miterlimit="10" d="M 164.410858 12.755771 C 164.410858 15.888456 161.874128 18.425186 158.741444 18.425186 C 155.61268 18.425186 153.072029 15.888456 153.072029 12.755771 C 153.072029 9.623087 155.61268 7.086357 158.741444 7.086357 C 161.874128 7.086357 164.410858 9.623087 164.410858 12.755771 Z M 164.410858 12.755771 " transform="matrix(0.9963, 0, 0, -0.9963, 90.349806, 80.575762)"/>
<path fill="none" stroke-width="1.19553" stroke-linecap="butt" stroke-linejoin="miter" stroke="rgb(69.018555%, 18.824768%, 18.824768%)" stroke-opacity="1" stroke-miterlimit="10" d="M 194.177244 35.433429 C 194.177244 55.001926 178.313862 70.865308 158.741444 70.865308 C 139.172947 70.865308 123.309564 55.001926 123.309564 35.433429 C 123.309564 15.864931 139.172947 0.00154948 158.741444 0.00154948 C 178.313862 0.00154948 194.177244 15.864931 194.177244 35.433429 Z M 194.177244 35.433429 " transform="matrix(0.9963, 0, 0, -0.9963, 90.349806, 80.575762)"/>
<path fill="none" stroke-width="1.19553" stroke-linecap="butt" stroke-linejoin="miter" stroke="rgb(69.018555%, 18.824768%, 18.824768%)" stroke-opacity="1" stroke-miterlimit="10" d="M 171.499586 12.755771 C 171.499586 19.801371 165.787044 25.509993 158.741444 25.509993 C 151.695844 25.509993 145.987222 19.801371 145.987222 12.755771 C 145.987222 5.710171 151.695844 0.00154948 158.741444 0.00154948 C 165.787044 0.00154948 171.499586 5.710171 171.499586 12.755771 Z M 171.499586 12.755771 " transform="matrix(0.9963, 0, 0, -0.9963, 90.349806, 80.575762)"/>
<path fill-rule="nonzero" fill="rgb(69.018555%, 18.824768%, 18.824768%)" fill-opacity="1" d="M 250.191406 80.574219 C 250.191406 79.644531 249.4375 78.886719 248.503906 78.886719 C 247.574219 78.886719 246.816406 79.644531 246.816406 80.574219 C 246.816406 81.507812 247.574219 82.261719 248.503906 82.261719 C 249.4375 82.261719 250.191406 81.507812 250.191406 80.574219 Z M 250.191406 80.574219 "/>
<g fill="rgb(69.018555%, 18.824768%, 18.824768%)" fill-opacity="1">
<use xlink:href="#glyph-0-0" x="244.933721" y="90.626437"/>
</g>
<g fill="rgb(69.018555%, 18.824768%, 18.824768%)" fill-opacity="1">
<use xlink:href="#glyph-0-1" x="243.015844" y="5.335186"/>
</g>
<g fill="rgb(69.018555%, 18.824768%, 18.824768%)" fill-opacity="1">
<use xlink:href="#glyph-2-0" x="247.758232" y="6.327501"/>
</g>
<path fill="none" stroke-width="0.3985" stroke-linecap="butt" stroke-linejoin="miter" stroke="rgb(81.411743%, 51.293945%, 51.293945%)" stroke-opacity="1" stroke-miterlimit="10" d="M 170.080272 7.937161 L 187.657025 -2.833158 " transform="matrix(0.9963, 0, 0, -0.9963, 90.349806, 80.575762)"/>
<g fill="rgb(69.018555%, 18.824768%, 18.824768%)" fill-opacity="1">
<use xlink:href="#glyph-0-1" x="278.43132" y="85.542318"/>
</g>
<g fill="rgb(69.018555%, 18.824768%, 18.824768%)" fill-opacity="1">
<use xlink:href="#glyph-1-0" x="283.173708" y="86.535629"/>
</g>
<g fill="rgb(23.136902%, 45.881653%, 68.624878%)" fill-opacity="1">
<use xlink:href="#glyph-4-0" x="244.573061" y="31.43725"/>
</g>
<path fill="none" stroke-width="0.3985" stroke-linecap="butt" stroke-linejoin="miter" stroke="rgb(50%, 50%, 50%)" stroke-opacity="1" stroke-miterlimit="10" d="M 163.277759 17.009792 L 179.152904 27.211602 " transform="matrix(0.9963, 0, 0, -0.9963, 90.349806, 80.575762)"/>
<g fill="rgb(39.99939%, 39.99939%, 39.99939%)" fill-opacity="1">
<use xlink:href="#glyph-0-2" x="269.393883" y="52.906519"/>
</g>
<g fill="rgb(25%, 25%, 25%)" fill-opacity="1">
<use xlink:href="#glyph-3-1" x="181.188455" y="106.526389"/>
<use xlink:href="#glyph-3-2" x="186.151324" y="106.526389"/>
<use xlink:href="#glyph-3-3" x="190.039236" y="106.526389"/>
<use xlink:href="#glyph-3-1" x="194.450234" y="106.526389"/>
<use xlink:href="#glyph-3-4" x="199.413103" y="106.526389"/>
</g>
<g fill="rgb(25%, 25%, 25%)" fill-opacity="1">
<use xlink:href="#glyph-4-0" x="203.273437" y="106.526389"/>
</g>
<g fill="rgb(25%, 25%, 25%)" fill-opacity="1">
<use xlink:href="#glyph-3-5" x="211.133247" y="106.526389"/>
</g>
<g fill="rgb(25%, 25%, 25%)" fill-opacity="1">
<use xlink:href="#glyph-3-6" x="217.752722" y="106.526389"/>
</g>
<g fill="rgb(25%, 25%, 25%)" fill-opacity="1">
<use xlink:href="#glyph-3-1" x="228.232317" y="106.526389"/>
<use xlink:href="#glyph-3-2" x="233.195186" y="106.526389"/>
</g>
<g fill="rgb(25%, 25%, 25%)" fill-opacity="1">
<use xlink:href="#glyph-3-3" x="237.073172" y="106.526389"/>
</g>
<g fill="rgb(25%, 25%, 25%)" fill-opacity="1">
<use xlink:href="#glyph-3-1" x="241.494096" y="106.526389"/>
<use xlink:href="#glyph-3-4" x="246.456965" y="106.526389"/>
</g>
<g fill="rgb(25%, 25%, 25%)" fill-opacity="1">
<use xlink:href="#glyph-4-1" x="250.312745" y="106.526389"/>
</g>
<g fill="rgb(25%, 25%, 25%)" fill-opacity="1">
<use xlink:href="#glyph-5-0" x="255.45166" y="108.015857"/>
</g>
<g fill="rgb(25%, 25%, 25%)" fill-opacity="1">
<use xlink:href="#glyph-3-5" x="262.150782" y="106.526389"/>
</g>
<g fill="rgb(25%, 25%, 25%)" fill-opacity="1">
<use xlink:href="#glyph-7-0" x="268.217252" y="106.526389"/>
</g>
<g fill="rgb(25%, 25%, 25%)" fill-opacity="1">
<use xlink:href="#glyph-3-1" x="278.142393" y="106.526389"/>
<use xlink:href="#glyph-3-2" x="283.105262" y="106.526389"/>
<use xlink:href="#glyph-3-3" x="286.993174" y="106.526389"/>
<use xlink:href="#glyph-3-1" x="291.404172" y="106.526389"/>
<use xlink:href="#glyph-3-4" x="296.367041" y="106.526389"/>
</g>
<g fill="rgb(25%, 25%, 25%)" fill-opacity="1">
<use xlink:href="#glyph-4-1" x="300.227375" y="106.526389"/>
</g>
<g fill="rgb(25%, 25%, 25%)" fill-opacity="1">
<use xlink:href="#glyph-6-0" x="305.36629" y="108.015857"/>
</g>
<g fill="rgb(25%, 25%, 25%)" fill-opacity="1">
<use xlink:href="#glyph-3-5" x="311.955819" y="106.526389"/>
</g>
<g fill="rgb(0%, 0%, 0%)" fill-opacity="1">
<use xlink:href="#glyph-8-0" x="34.458372" y="119.518141"/>
<use xlink:href="#glyph-8-1" x="38.897162" y="119.518141"/>
<use xlink:href="#glyph-8-2" x="44.44565" y="119.518141"/>
</g>
<g fill="rgb(0%, 0%, 0%)" fill-opacity="1">
<use xlink:href="#glyph-3-7" x="52.193508" y="119.518141"/>
<use xlink:href="#glyph-3-8" x="56.10822" y="119.518141"/>
<use xlink:href="#glyph-3-9" x="58.86559" y="119.518141"/>
<use xlink:href="#glyph-3-3" x="64.38033" y="119.518141"/>
</g>
<g fill="rgb(0%, 0%, 0%)" fill-opacity="1">
<use xlink:href="#glyph-3-10" x="72.096599" y="119.518141"/>
</g>
<g fill="rgb(0%, 0%, 0%)" fill-opacity="1">
<use xlink:href="#glyph-3-11" x="77.343344" y="119.518141"/>
</g>
<g fill="rgb(0%, 0%, 0%)" fill-opacity="1">
<use xlink:href="#glyph-3-7" x="85.88742" y="119.518141"/>
<use xlink:href="#glyph-3-8" x="89.802131" y="119.518141"/>
<use xlink:href="#glyph-3-9" x="92.559501" y="119.518141"/>
<use xlink:href="#glyph-3-3" x="98.074242" y="119.518141"/>
<use xlink:href="#glyph-3-12" x="102.48524" y="119.518141"/>
</g>
<g fill="rgb(0%, 0%, 0%)" fill-opacity="1">
<use xlink:href="#glyph-4-0" x="110.204072" y="119.518141"/>
</g>
<g fill="rgb(0%, 0%, 0%)" fill-opacity="1">
<use xlink:href="#glyph-3-8" x="121.371599" y="119.518141"/>
<use xlink:href="#glyph-3-7" x="124.128969" y="119.518141"/>
</g>
<g fill="rgb(0%, 0%, 0%)" fill-opacity="1">
<use xlink:href="#glyph-3-13" x="131.348951" y="119.518141"/>
<use xlink:href="#glyph-3-14" x="136.31182" y="119.518141"/>
<use xlink:href="#glyph-3-3" x="141.826561" y="119.518141"/>
</g>
<g fill="rgb(0%, 0%, 0%)" fill-opacity="1">
<use xlink:href="#glyph-3-13" x="32.794551" y="131.428907"/>
<use xlink:href="#glyph-3-15" x="37.75742" y="131.428907"/>
</g>
<g fill="rgb(0%, 0%, 0%)" fill-opacity="1">
<use xlink:href="#glyph-3-16" x="44.095997" y="131.428907"/>
<use xlink:href="#glyph-3-17" x="47.956117" y="131.428907"/>
<use xlink:href="#glyph-3-3" x="53.470857" y="131.428907"/>
</g>
<g fill="rgb(0%, 0%, 0%)" fill-opacity="1">
<use xlink:href="#glyph-3-16" x="61.197052" y="131.428907"/>
</g>
<g fill="rgb(0%, 0%, 0%)" fill-opacity="1">
<use xlink:href="#glyph-3-18" x="64.779251" y="131.428907"/>
</g>
<g fill="rgb(0%, 0%, 0%)" fill-opacity="1">
<use xlink:href="#glyph-3-13" x="71.669698" y="131.428907"/>
</g>
<g fill="rgb(0%, 0%, 0%)" fill-opacity="1">
<use xlink:href="#glyph-3-9" x="79.937838" y="131.428907"/>
<use xlink:href="#glyph-3-8" x="85.452578" y="131.428907"/>
<use xlink:href="#glyph-3-7" x="88.209949" y="131.428907"/>
<use xlink:href="#glyph-3-19" x="92.12466" y="131.428907"/>
<use xlink:href="#glyph-3-7" x="97.363465" y="131.428907"/>
<use xlink:href="#glyph-3-20" x="101.278176" y="131.428907"/>
</g>
<g fill="rgb(0%, 0%, 0%)" fill-opacity="1">
<use xlink:href="#glyph-3-13" x="107.350742" y="131.428907"/>
<use xlink:href="#glyph-3-15" x="112.313612" y="131.428907"/>
</g>
<g fill="rgb(0%, 0%, 0%)" fill-opacity="1">
<use xlink:href="#glyph-3-1" x="118.652188" y="131.428907"/>
<use xlink:href="#glyph-3-2" x="123.615057" y="131.428907"/>
<use xlink:href="#glyph-3-3" x="127.502969" y="131.428907"/>
<use xlink:href="#glyph-3-1" x="131.913967" y="131.428907"/>
</g>
<g fill="rgb(0%, 0%, 0%)" fill-opacity="1">
<use xlink:href="#glyph-3-0" x="140.182107" y="131.428907"/>
<use xlink:href="#glyph-3-12" x="145.144976" y="131.428907"/>
</g>
<g fill="rgb(0%, 0%, 0%)" fill-opacity="1">
<use xlink:href="#glyph-8-0" x="183.791787" y="119.518141"/>
<use xlink:href="#glyph-8-3" x="188.230577" y="119.518141"/>
<use xlink:href="#glyph-8-2" x="194.572131" y="119.518141"/>
</g>
<g fill="rgb(0%, 0%, 0%)" fill-opacity="1">
<use xlink:href="#glyph-3-14" x="202.319978" y="119.518141"/>
<use xlink:href="#glyph-3-3" x="207.834718" y="119.518141"/>
<use xlink:href="#glyph-3-7" x="212.245716" y="119.518141"/>
<use xlink:href="#glyph-3-16" x="216.160427" y="119.518141"/>
<use xlink:href="#glyph-3-3" x="220.020547" y="119.518141"/>
<use xlink:href="#glyph-3-9" x="224.431545" y="119.518141"/>
<use xlink:href="#glyph-3-12" x="229.946285" y="119.518141"/>
</g>
<g fill="rgb(0%, 0%, 0%)" fill-opacity="1">
<use xlink:href="#glyph-4-0" x="237.666709" y="119.518141"/>
</g>
<g fill="rgb(0%, 0%, 0%)" fill-opacity="1">
<use xlink:href="#glyph-3-8" x="248.834236" y="119.518141"/>
<use xlink:href="#glyph-3-7" x="251.591606" y="119.518141"/>
</g>
<g fill="rgb(0%, 0%, 0%)" fill-opacity="1">
<use xlink:href="#glyph-3-16" x="258.811588" y="119.518141"/>
<use xlink:href="#glyph-3-17" x="262.671708" y="119.518141"/>
<use xlink:href="#glyph-3-3" x="268.186448" y="119.518141"/>
</g>
<g fill="rgb(0%, 0%, 0%)" fill-opacity="1">
<use xlink:href="#glyph-3-21" x="275.912643" y="119.518141"/>
<use xlink:href="#glyph-3-2" x="280.323641" y="119.518141"/>
<use xlink:href="#glyph-3-3" x="284.211553" y="119.518141"/>
<use xlink:href="#glyph-3-7" x="288.622551" y="119.518141"/>
<use xlink:href="#glyph-3-21" x="292.537262" y="119.518141"/>
<use xlink:href="#glyph-3-3" x="296.94826" y="119.518141"/>
<use xlink:href="#glyph-3-14" x="301.359258" y="119.518141"/>
</g>
<g fill="rgb(0%, 0%, 0%)" fill-opacity="1">
<use xlink:href="#glyph-3-16" x="306.596078" y="119.518141"/>
<use xlink:href="#glyph-3-20" x="310.456197" y="119.518141"/>
</g>
<g fill="rgb(0%, 0%, 0%)" fill-opacity="1">
<use xlink:href="#glyph-3-1" x="185.267307" y="131.428907"/>
<use xlink:href="#glyph-3-14" x="190.230176" y="131.428907"/>
<use xlink:href="#glyph-3-9" x="195.744916" y="131.428907"/>
</g>
<g fill="rgb(0%, 0%, 0%)" fill-opacity="1">
<use xlink:href="#glyph-3-8" x="204.564927" y="131.428907"/>
<use xlink:href="#glyph-3-16" x="207.322298" y="131.428907"/>
<use xlink:href="#glyph-3-7" x="211.182417" y="131.428907"/>
</g>
<g fill="rgb(0%, 0%, 0%)" fill-opacity="1">
<use xlink:href="#glyph-3-1" x="218.412325" y="131.428907"/>
<use xlink:href="#glyph-3-2" x="223.375194" y="131.428907"/>
<use xlink:href="#glyph-3-3" x="227.263106" y="131.428907"/>
<use xlink:href="#glyph-3-1" x="231.674104" y="131.428907"/>
</g>
<g fill="rgb(0%, 0%, 0%)" fill-opacity="1">
<use xlink:href="#glyph-3-8" x="239.942244" y="131.428907"/>
<use xlink:href="#glyph-3-7" x="242.699614" y="131.428907"/>
</g>
<g fill="rgb(0%, 0%, 0%)" fill-opacity="1">
<use xlink:href="#glyph-3-16" x="249.919596" y="131.428907"/>
<use xlink:href="#glyph-3-17" x="253.779716" y="131.428907"/>
<use xlink:href="#glyph-3-3" x="259.294456" y="131.428907"/>
</g>
<g fill="rgb(0%, 0%, 0%)" fill-opacity="1">
<use xlink:href="#glyph-9-0" x="267.015715" y="131.428907"/>
<use xlink:href="#glyph-9-1" x="272.088759" y="131.428907"/>
<use xlink:href="#glyph-9-2" x="275.132983" y="131.428907"/>
<use xlink:href="#glyph-9-3" x="281.220439" y="131.428907"/>
<use xlink:href="#glyph-9-4" x="285.786278" y="131.428907"/>
</g>
<g fill="rgb(0%, 0%, 0%)" fill-opacity="1">
<use xlink:href="#glyph-9-3" x="289.46575" y="131.428907"/>
<use xlink:href="#glyph-9-5" x="294.031589" y="131.428907"/>
<use xlink:href="#glyph-9-6" x="299.611839" y="131.428907"/>
</g>
<g fill="rgb(0%, 0%, 0%)" fill-opacity="1">
<use xlink:href="#glyph-9-3" x="303.671466" y="131.428907"/>
</g>
<g fill="rgb(0%, 0%, 0%)" fill-opacity="1">
<use xlink:href="#glyph-3-22" x="308.980867" y="131.428907"/>
</g>
<g fill="rgb(0%, 0%, 0%)" fill-opacity="1">
<use xlink:href="#glyph-3-10" x="179.67109" y="143.339674"/>
</g>
<g fill="rgb(0%, 0%, 0%)" fill-opacity="1">
<use xlink:href="#glyph-3-13" x="185.463751" y="143.339674"/>
<use xlink:href="#glyph-3-16" x="190.42662" y="143.339674"/>
<use xlink:href="#glyph-3-17" x="194.28674" y="143.339674"/>
</g>
<g fill="rgb(0%, 0%, 0%)" fill-opacity="1">
<use xlink:href="#glyph-3-21" x="203.106751" y="143.339674"/>
<use xlink:href="#glyph-3-23" x="207.517749" y="143.339674"/>
<use xlink:href="#glyph-3-2" x="213.032489" y="143.339674"/>
<use xlink:href="#glyph-3-24" x="216.920401" y="143.339674"/>
</g>
<g fill="rgb(0%, 0%, 0%)" fill-opacity="1">
<use xlink:href="#glyph-3-3" x="221.881285" y="143.339674"/>
<use xlink:href="#glyph-3-7" x="226.292283" y="143.339674"/>
</g>
<g fill="rgb(0%, 0%, 0%)" fill-opacity="1">
<use xlink:href="#glyph-3-1" x="233.522191" y="143.339674"/>
<use xlink:href="#glyph-3-16" x="238.48506" y="143.339674"/>
</g>
<g fill="rgb(0%, 0%, 0%)" fill-opacity="1">
<use xlink:href="#glyph-3-0" x="245.650451" y="143.339674"/>
</g>
<g fill="rgb(0%, 0%, 0%)" fill-opacity="1">
<use xlink:href="#glyph-3-25" x="253.918591" y="143.339674"/>
<use xlink:href="#glyph-3-3" x="256.675961" y="143.339674"/>
<use xlink:href="#glyph-3-1" x="261.086959" y="143.339674"/>
</g>
<g fill="rgb(0%, 0%, 0%)" fill-opacity="1">
<use xlink:href="#glyph-3-24" x="265.771907" y="143.339674"/>
</g>
<g fill="rgb(0%, 0%, 0%)" fill-opacity="1">
<use xlink:href="#glyph-3-3" x="270.742717" y="143.339674"/>
</g>
<g fill="rgb(0%, 0%, 0%)" fill-opacity="1">
<use xlink:href="#glyph-3-8" x="278.458986" y="143.339674"/>
<use xlink:href="#glyph-3-16" x="281.216356" y="143.339674"/>
</g>
<g fill="rgb(0%, 0%, 0%)" fill-opacity="1">
<use xlink:href="#glyph-3-3" x="288.381747" y="143.339674"/>
<use xlink:href="#glyph-3-26" x="292.792745" y="143.339674"/>
<use xlink:href="#glyph-3-27" x="301.063863" y="143.339674"/>
<use xlink:href="#glyph-3-16" x="306.578603" y="143.339674"/>
</g>
<g fill="rgb(0%, 0%, 0%)" fill-opacity="1">
<use xlink:href="#glyph-3-11" x="310.160802" y="143.339674"/>
</g>
<g fill="rgb(0%, 0%, 0%)" fill-opacity="1">
<use xlink:href="#glyph-3-12" x="314.57577" y="143.339674"/>
</g>
</svg>
